<?xml version="1.0" encoding="utf-8"?>
<!-- Generator: Adobe Illustrator 19.2.1, SVG Export Plug-In . SVG Version: 6.00 Build 0)  -->
<!DOCTYPE svg PUBLIC "-//W3C//DTD SVG 1.1//EN" "http://www.w3.org/Graphics/SVG/1.1/DTD/svg11.dtd">
<svg version="1.1" id="Layer_1" xmlns="http://www.w3.org/2000/svg" xmlns:xlink="http://www.w3.org/1999/xlink" x="0px" y="0px"
	 viewBox="0 0 1297.3 329.7" style="enable-background:new 0 0 1297.3 329.7;" xml:space="preserve">
<style type="text/css">
	.st0{fill:#6CAB36;}
</style>
<g>
	<g>
		<g>
			<g>
				<path class="st0" d="M327.2,164.8"/>
			</g>
			<g>
				<path class="st0" d="M0,164.8C0,73.7,73.7,0,164.8,0l0,0c1.4,0,2.5,1.1,2.5,2.5l0,0c0,1.4-1.1,2.5-2.5,2.5l0,0
					c-44.2,0-84.1,17.9-113,46.8l0,0C22.9,80.7,5,120.6,5,164.8l0,0c0,44.2,17.9,84.1,46.8,113.1l0,0c28.9,28.9,68.9,46.8,113,46.8
					l0,0c1.4,0,2.5,1.1,2.5,2.5l0,0c0,1.4-1.1,2.5-2.5,2.5l0,0C73.7,329.7,0,255.9,0,164.8L0,164.8z"/>
			</g>
			<g>
				<path class="st0" d="M12.5,164.8c0-84.1,68.1-152.3,152.3-152.3l0,0c84.2,0,152.3,68.2,152.3,152.3l0,0
					c0,84.2-68.1,152.3-152.3,152.3l0,0v-2.5v-2.5c40.7,0,77.6-16.5,104.2-43.1l0,0c26.7-26.7,43.1-63.5,43.1-104.2l0,0
					c0-40.7-16.5-77.5-43.1-104.2l0,0C242.4,34,205.6,17.5,164.8,17.5l0,0c-40.7,0-77.6,16.5-104.2,43.1l0,0
					C34,87.3,17.5,124.1,17.5,164.8l0,0c0,40.7,16.5,77.5,43.1,104.2l0,0c26.6,26.7,63.5,43.1,104.2,43.1l0,0v2.5v2.5
					C80.6,317.1,12.5,249,12.5,164.8L12.5,164.8z"/>
			</g>
			<g>
				<path class="st0" d="M65.9,263.7C40.6,238.5,25,203.5,25,164.8l0,0c0-38.7,15.6-73.6,40.9-98.9l0,0C91.2,40.6,126.2,25,164.8,25
					l0,0c38.7,0,73.6,15.6,98.9,40.9l0,0c25.3,25.3,40.9,60.2,40.9,98.9l0,0c0,38.7-15.6,73.6-40.9,98.9l0,0
					c-25.3,25.3-60.3,40.9-98.9,40.9l0,0C126.2,304.6,91.2,289,65.9,263.7L65.9,263.7z M30,164.8c0,74.6,60.3,134.8,134.9,134.8l0,0
					c74.6,0,134.9-60.2,134.9-134.8l0,0C299.7,90.3,239.4,30,164.8,30l0,0C90.3,30,30,90.3,30,164.8L30,164.8z"/>
			</g>
			<g>
				<path class="st0" d="M164.8,292.2v-2.5v-2.5c33.8,0,64.4-13.7,86.6-35.9l0,0c22.1-22.2,35.8-52.8,35.8-86.6l0,0
					c0-33.8-13.7-64.4-35.8-86.6l0,0c-22.1-22.2-52.7-35.9-86.6-35.9l0,0c-33.8,0-64.4,13.7-86.5,35.9l0,0
					c-22.1,22.2-35.8,52.7-35.8,86.6l0,0c0,33.8,13.7,64.4,35.8,86.6l0,0c22.1,22.2,52.7,35.9,86.5,35.9l0,0v2.5V292.2
					c-70.4,0-127.3-57.1-127.3-127.4l0,0c0-70.3,56.9-127.4,127.3-127.4l0,0c70.4,0,127.3,57.1,127.3,127.4l0,0
					C292.2,235.2,235.3,292.2,164.8,292.2L164.8,292.2L164.8,292.2L164.8,292.2z"/>
			</g>
			<g>
				<path class="st0" d="M83.6,246.1c-20.8-20.8-33.6-49.5-33.6-81.3l0,0c0-31.8,12.8-60.5,33.6-81.3l0,0
					c20.8-20.8,49.5-33.6,81.3-33.6l0,0c1.4,0,2.5,1.1,2.5,2.5l0,0c0,1.4-1.1,2.5-2.5,2.5l0,0c-60.8,0-109.9,49.1-109.9,109.9l0,0
					c0,60.8,49.1,109.9,109.9,109.9l0,0c60.8,0,109.9-49.1,109.9-109.9l0,0c0-1.4,1.1-2.5,2.5-2.5l0,0c1.4,0,2.5,1.1,2.5,2.5l0,0
					c0,31.8-12.8,60.5-33.6,81.3l0,0c-20.8,20.8-49.5,33.6-81.3,33.6l0,0C133.1,279.7,104.3,266.9,83.6,246.1L83.6,246.1z"/>
			</g>
			<g>
				<path class="st0" d="M92.4,237.2c-18.5-18.5-30-44.1-30-72.4l0,0c0-28.3,11.4-53.9,30-72.4l0,0c18.5-18.5,44.1-30,72.4-30l0,0
					c28.3,0,53.9,11.5,72.4,30l0,0c18.5,18.5,30,44.1,30,72.4l0,0c0,1.3-1.1,2.5-2.5,2.5l0,0c-1.4,0-2.5-1.1-2.5-2.5l0,0
					c0-26.9-10.9-51.2-28.5-68.9l0,0c-17.6-17.6-42-28.5-68.9-28.5l0,0c-26.9,0-51.3,10.9-68.9,28.5l0,0
					c-17.6,17.6-28.5,41.9-28.5,68.9l0,0c0,26.9,10.9,51.2,28.5,68.9l0,0c17.6,17.6,42,28.5,68.9,28.5l0,0l0,0
					c1.4,0,2.5,1.1,2.5,2.5l0,0c0,1.4-1.1,2.5-2.5,2.5l0,0C136.5,267.2,110.9,255.8,92.4,237.2L92.4,237.2z"/>
			</g>
			<g>
				<path class="st0" d="M101.8,227.8c-16.1-16.1-26.1-38.3-26.1-63l0,0c0-24.6,9.9-46.9,26.1-63l0,0c16.1-16.1,38.4-26,63-26l0,0
					c24.6,0,46.9,9.9,63,26l0,0c16.1,16.1,26.1,38.4,26.1,63l0,0c0,24.6-10,46.9-26.1,63l0,0c-16.1,16.1-38.4,26-63,26l0,0
					C140.2,253.8,117.9,243.9,101.8,227.8L101.8,227.8z M79.1,164.8c0,47.4,38.3,85.7,85.8,85.7l0,0c47.4,0,85.8-38.3,85.8-85.7l0,0
					c0-47.4-38.4-85.7-85.8-85.7l0,0C117.4,79.2,79.1,117.4,79.1,164.8L79.1,164.8z"/>
			</g>
			<g>
				<path class="st0" d="M87.4,164.8c0-42.7,34.6-77.5,77.4-77.5l0,0c1.4,0,2.5,1.1,2.5,2.5l0,0c0,1.4-1.1,2.5-2.5,2.5l0,0
					c-20,0-38.1,8.1-51.2,21.3l0,0c-13.1,13.1-21.2,31.2-21.2,51.2l0,0c0,20,8.1,38.1,21.2,51.2l0,0c13.1,13.1,31.2,21.2,51.2,21.2
					l0,0c20,0,38.1-8.1,51.2-21.2l0,0c13.1-13.1,21.2-31.2,21.2-51.2l0,0c0-1.4,1.1-2.5,2.5-2.5l0,0c1.4,0,2.5,1.1,2.5,2.5l0,0
					c0,42.8-34.6,77.5-77.4,77.5l0,0C122.1,242.3,87.4,207.6,87.4,164.8L87.4,164.8z"/>
			</g>
			<g>
				<path class="st0" d="M159.8,227.3c0-2.8,2.3-5,5-5l0,0c31.7-0.1,57.4-25.7,57.5-57.5l0,0c0-31.8-25.7-57.5-57.5-57.5l0,0
					c-31.7,0-57.4,25.7-57.5,57.5l0,0c0,2.7-2.2,5-5,5l0,0c-2.8,0-5-2.2-5-5l0,0c0-37.3,30.2-67.4,67.4-67.4l0,0
					c37.3,0.1,67.5,30.1,67.5,67.4l0,0c0,37.3-30.2,67.4-67.5,67.4l0,0C162.1,232.3,159.8,230.1,159.8,227.3L159.8,227.3z"/>
			</g>
			<g>
				<path class="st0" d="M164.8,114.9"/>
			</g>
			<g>
				<path class="st0" d="M112.4,164.8c0-1.4,1.1-2.5,2.5-2.5l0,0c1.4,0,2.5,1.1,2.5,2.5l0,0c0.1,26.2,21.2,47.4,47.4,47.4l0,0
					c26.2-0.1,47.4-21.2,47.4-47.4l0,0c0-1.4,1.1-2.5,2.5-2.5l0,0c1.4,0,2.5,1.1,2.5,2.5l0,0c0,28.9-23.5,52.4-52.4,52.4l0,0
					C135.9,217.3,112.4,193.8,112.4,164.8L112.4,164.8z"/>
			</g>
			<g>
				<path class="st0" d="M123.2,164.8c0-23.1,18.7-41.5,41.6-41.6l0,0c23,0,41.6,18.5,41.6,41.6l0,0c0,23.1-18.7,41.5-41.6,41.6l0,0
					C141.9,206.4,123.2,187.9,123.2,164.8L123.2,164.8z M131.5,164.8c0,18.5,14.9,33.2,33.3,33.3l0,0c18.4,0,33.4-14.8,33.4-33.3
					l0,0c0-18.5-14.9-33.3-33.4-33.3l0,0C146.4,131.6,131.5,146.4,131.5,164.8L131.5,164.8z"/>
			</g>
			<g>
				<path class="st0" d="M159.8,189.9c0-2.8,2.3-5,5-5l0,0c11,0,20-9,20-20.1l0,0c0-11-9-20.1-20-20.1l0,0c-11,0-19.9,9-20,20.1l0,0
					l0,0c0,2.7-2.2,5-5,5l0,0c-2.8,0-5-2.2-5-5l0,0c0-16.5,13.4-30,30-30l0,0c16.6,0,30,13.5,30,30l0,0c0,16.5-13.4,30-30,30l0,0
					C162.1,194.9,159.8,192.6,159.8,189.9L159.8,189.9z"/>
			</g>
		</g>
	</g>
	<g>
		<path class="st0" d="M371.8,123.9h54.6v13.3h-40v20.3h37.9v13.3h-37.9v22.4h42.1v13.3h-56.7V123.9z"/>
		<path class="st0" d="M474.9,167.2c-3.3-3.4-6.9-5.6-10.6-5.6c-10.3,0-16.4,8-16.4,16.8c0,8.7,6.2,16.8,16.4,16.8
			c4.3,0,8.3-1.9,10.8-5.2l9.3,10c-5.7,5.7-15.3,7.8-20.2,7.8c-16.9,0-30.4-11.8-30.4-29.4c0-17.6,13.5-29.3,30.4-29.3
			c7.1,0,14.9,2.6,20.3,8.5L474.9,167.2z"/>
		<path class="st0" d="M519.5,149.1c16.9,0,30.4,11.8,30.4,29.3c0,17.6-13.5,29.4-30.4,29.4c-16.9,0-30.4-11.8-30.4-29.4
			C489.1,160.8,502.6,149.1,519.5,149.1z M519.5,195.2c10.2,0,16.4-8,16.4-16.8c0-8.7-6.2-16.8-16.4-16.8c-10.3,0-16.4,8-16.4,16.8
			C503.1,187.2,509.3,195.2,519.5,195.2z"/>
		<path class="st0" d="M565.2,123.9h14.7v32.8h38.6v-32.8h14.7v82.5h-14.7V170h-38.6v36.3h-14.7V123.9z"/>
		<path class="st0" d="M656.6,183.3c0.9,8.3,7.2,13.3,15,13.3c7,0,11.5-3.3,15-7.6l10,7.6c-6.5,8-14.8,11.2-23.6,11.2
			c-16.9,0-30.4-11.8-30.4-29.4c0-17.6,13.5-29.3,30.4-29.3c15.6,0,26.2,10.9,26.2,30.4v3.8H656.6z M685.3,172.8
			c-0.1-8.2-5.5-13.3-14.2-13.3c-8.3,0-13.4,5.2-14.4,13.3H685.3z"/>
		<path class="st0" d="M745.4,198.7h-0.3c-4,6.3-10.5,9.1-17.9,9.1c-10.4,0-20.4-5.7-20.4-16.8c0-18.2,21.2-19.5,35.2-19.5h3.5V170
			c0-6.9-5.4-10.5-12.8-10.5c-5.8,0-11.2,2.3-14.9,5.8l-7.3-7.3c6.2-6.3,14.9-9,23.8-9c23.9,0,23.9,17.2,23.9,25.2v32.2h-12.6V198.7
			z M744.6,181.3h-2.9c-7.7,0-21,0.6-21,8.6c0,5.1,5.2,7.3,9.8,7.3c9.5,0,14.1-5,14.1-12.8V181.3z"/>
		<path class="st0" d="M768.7,118.3h14v88.1h-14V118.3z"/>
		<path class="st0" d="M793,162.3v-11.9h11.5v-16.2h14v16.2h15.4v11.9h-15.4v24.5c0,5.6,1.6,9.1,7.8,9.1c2.4,0,5.8-0.5,7.6-1.7v11.8
			c-2.9,1.4-7.8,1.9-11.1,1.9c-14.8,0-18.3-6.6-18.3-19.8v-25.6H793z"/>
		<path class="st0" d="M861,158.3h0.2c2.2-4.7,7.8-9.2,16.4-9.2c15,0,20.4,10.6,20.4,22v35.3h-14v-28.3c0-6.2-0.5-16.4-10.2-16.4
			c-9.2,0-12.8,6.8-12.8,14.2v30.5h-14v-88.1h14V158.3z"/>
		<path class="st0" d="M963.4,123.9h9.2l35.1,82.5h-11.4l-8.4-20.3h-41.2l-8.5,20.3h-11.1L963.4,123.9z M967.9,136.5h-0.2L950.5,177
			h33.7L967.9,136.5z"/>
		<path class="st0" d="M1014,118.3h9.1v88.1h-9.1V118.3z"/>
		<path class="st0" d="M1033.9,118.3h9.1v88.1h-9.1V118.3z"/>
		<path class="st0" d="M1060.1,123.9c3.7,0,6.6,3,6.6,6.6c0,3.8-2.8,6.6-6.6,6.6c-3.8,0-6.6-2.8-6.6-6.6
			C1053.4,126.9,1056.3,123.9,1060.1,123.9z M1055.5,151.9h9.1v54.5h-9.1V151.9z"/>
		<path class="st0" d="M1077,158.9c5.6-5.7,13.8-8.4,21.7-8.4c16.1,0,22.8,7.7,22.8,23.1v23.4c0,3.1,0.4,6.6,0.8,9.4h-8.7
			c-0.6-2.5-0.6-5.8-0.6-8.2h-0.2c-3.6,5.6-9.7,9.5-17.9,9.5c-11.1,0-20.3-5.6-20.3-16.2c0-18,21-19.1,34.4-19.1h3.5v-1.6
			c0-7.9-5-12-13.5-12c-5.8,0-11.9,2-16.2,5.9L1077,158.9z M1103.4,180.2c-11.5,0-19,3.2-19,10.5c0,6.9,5.1,9.4,12,9.4
			c10.5,0,15.8-7.6,16.1-16.4v-3.5H1103.4z"/>
		<path class="st0" d="M1133,164.8c0-5-0.5-9.3-0.5-12.9h8.6c0,2.9,0.2,5.9,0.2,9h0.2c2.4-5.4,9.2-10.4,18.2-10.4
			c14.3,0,20.7,9.1,20.7,22.3v33.7h-9.1v-32.7c0-9.1-4-14.8-12.5-14.8c-11.8,0-16.9,8.5-16.9,21v26.6h-9.1V164.8z"/>
		<path class="st0" d="M1231.8,165.5c-3.8-4.7-8.3-6.6-13.7-6.6c-12.2,0-18.4,9.1-18.4,20.3c0,11.2,7.3,20.3,18.4,20.3
			c5.9,0,10.5-2.1,13.9-6.8l6.8,6.4c-5.2,6.1-12.7,8.7-20.6,8.7c-16.9,0-28.2-11.9-28.2-28.6c0-16.5,11.4-28.7,28.2-28.7
			c8,0,15.5,2.7,21,8.6L1231.8,165.5z"/>
		<path class="st0" d="M1295.3,196.5c-6.4,8.3-14.1,11.3-24.2,11.3c-17.1,0-27.6-12.8-27.6-28.6c0-16.9,11.9-28.7,28-28.7
			c15.4,0,25.9,10.5,25.9,28.5v2.9h-44c0.7,9.4,7.9,17.5,17.8,17.5c7.8,0,13-2.8,17.4-8.3L1295.3,196.5z M1287.5,174.2
			c-0.3-9.2-6.4-15.4-16.4-15.4c-10,0-16.7,6.2-17.8,15.4H1287.5z"/>
	</g>
</g>
</svg>
