<svg xmlns="http://www.w3.org/2000/svg" viewBox="0 0 711.63 322.36"><defs><style>.a{fill:#f07381;}.b{fill:#345e7e;}.c{fill:#f6b297;}</style></defs><title>EIDRConnect-logo</title><path class="a" d="M226.51,237.7c11.23,0,35.53,4.09,35.53,18.49v9.58a1.78,1.78,0,0,1-1.78,1.78h-8.73a1.78,1.78,0,0,1-1.78-1.78v-5.49c0-8.19-14.13-11.23-22.72-11.23-19.94,0-34.6,14.66-34.6,35.79,0,22.06,15.06,37.77,35.4,37.77,6.6,0,23.24-2.38,23.24-11v-5.49a1.78,1.78,0,0,1,1.78-1.78h8.73a1.78,1.78,0,0,1,1.78,1.78v9.58c0,13.74-23.37,18.36-36.32,18.36-28,0-48.21-21.53-48.21-48.73S199.57,237.7,226.51,237.7Z" transform="translate(-13.18 -13.77)"/><path class="a" d="M312,264.12C331.9,264.12,348,278.78,348,299S331.9,334.11,312,334.11,275.91,319.32,275.91,299,292,264.12,312,264.12Zm0,58.9c12.55,0,23-10,23-24s-10.43-23.77-23-23.77-23,9.91-23,23.77S299.28,323,312,323Z" transform="translate(-13.18 -13.77)"/><path class="a" d="M360.89,322.62h6.88a1.78,1.78,0,0,0,1.78-1.78V278.51a2.58,2.58,0,0,0-2.9-2.91h-6.41a1.78,1.78,0,0,1-1.78-1.78v-6.35a1.78,1.78,0,0,1,1.78-1.78h13.28c5.81,0,8.45,2.51,8.45,7.39v3.43a19,19,0,0,1-.4,3.83h.26c1.32-3.57,9.11-16.24,26-16.24,15.32,0,22.19,8.59,22.19,25.62v31.11a1.78,1.78,0,0,0,1.78,1.78h7a1.78,1.78,0,0,1,1.78,1.78v6.35a1.78,1.78,0,0,1-1.78,1.78H419a1.78,1.78,0,0,1-1.78-1.78V292.64c0-9.38-1.85-16.77-12.55-16.77-13.47,0-22.32,12.28-22.32,25.62v19.35a1.78,1.78,0,0,0,1.78,1.78h7a1.78,1.78,0,0,1,1.78,1.78v6.35a1.78,1.78,0,0,1-1.78,1.78H360.89a1.78,1.78,0,0,1-1.78-1.78V324.4A1.78,1.78,0,0,1,360.89,322.62Z" transform="translate(-13.18 -13.77)"/><path class="a" d="M451.89,322.62h6.88a1.78,1.78,0,0,0,1.78-1.78V278.51a2.58,2.58,0,0,0-2.9-2.91h-6.41a1.78,1.78,0,0,1-1.78-1.78v-6.35a1.78,1.78,0,0,1,1.78-1.78H464.5c5.81,0,8.45,2.51,8.45,7.39v3.43a19,19,0,0,1-.4,3.83h.26c1.32-3.57,9.11-16.24,26-16.24,15.32,0,22.19,8.59,22.19,25.62v31.11a1.78,1.78,0,0,0,1.78,1.78h7a1.78,1.78,0,0,1,1.78,1.78v6.35a1.78,1.78,0,0,1-1.78,1.78H510a1.78,1.78,0,0,1-1.78-1.78V292.64c0-9.38-1.85-16.77-12.55-16.77-13.47,0-22.32,12.28-22.32,25.62v19.35a1.78,1.78,0,0,0,1.78,1.78h7a1.78,1.78,0,0,1,1.78,1.78v6.35a1.78,1.78,0,0,1-1.78,1.78H451.89a1.78,1.78,0,0,1-1.78-1.78V324.4A1.78,1.78,0,0,1,451.89,322.62Z" transform="translate(-13.18 -13.77)"/><path class="a" d="M573.6,264.12c19,0,28.92,14,28.92,31.3,0,.92-.11,2.25-.22,3.29a1.77,1.77,0,0,1-1.77,1.59H555.2a1.79,1.79,0,0,0-1.77,2C555,315.81,565,323,576.37,323c8.64,0,15.45-4.16,18.38-6.29a1.77,1.77,0,0,1,2.58.57l3.53,6.27a1.77,1.77,0,0,1-.46,2.28,41.63,41.63,0,0,1-24.82,8.27c-21,0-35.39-15.19-35.39-35C540.18,277.85,554.58,264.12,573.6,264.12Zm13.81,28a1.79,1.79,0,0,0,1.77-2c-1.09-10.46-7.88-15.85-15.84-15.85-9.12,0-16.62,5.75-19.09,15.63a1.78,1.78,0,0,0,1.73,2.2Z" transform="translate(-13.18 -13.77)"/><path class="a" d="M648.74,264.12c9.91,0,26.15,3.7,26.15,15.19v6.41a1.78,1.78,0,0,1-1.78,1.78h-7.81a1.78,1.78,0,0,1-1.78-1.78v-2.85c0-5.15-8.45-7.66-14.4-7.66-13.47,0-22.72,9.51-22.72,23.77,0,15.19,10.7,24,23.51,24,9.43,0,16.31-4.64,19.74-7.28a1.77,1.77,0,0,1,2.65.59l3.25,6.23a1.77,1.77,0,0,1-.44,2.19,40.79,40.79,0,0,1-25.73,9.36c-19.28,0-36.05-13.34-36.05-34.86C613.35,278.78,628.8,264.12,648.74,264.12Z" transform="translate(-13.18 -13.77)"/><path class="a" d="M692.93,275.61h-7.67a1.78,1.78,0,0,1-1.78-1.78v-6.35a1.78,1.78,0,0,1,1.78-1.78h7.94a1.78,1.78,0,0,0,1.78-1.78V249.12a1.78,1.78,0,0,1,1.78-1.78h9a1.78,1.78,0,0,1,1.78,1.78v14.81a1.78,1.78,0,0,0,1.78,1.78h10.79a1.78,1.78,0,0,1,1.78,1.78v6.35a1.78,1.78,0,0,1-1.78,1.78H709.29a1.78,1.78,0,0,0-1.78,1.78v29.52c0,13.6,9.24,15.32,14.26,15.32l1.2,0a1.78,1.78,0,0,1,1.84,1.77v7.2a1.77,1.77,0,0,1-1.64,1.77c-.78.06-1.8.1-3,.1-8.45,0-25.49-2.64-25.49-25V277.38A1.78,1.78,0,0,0,692.93,275.61Z" transform="translate(-13.18 -13.77)"/><path class="b" d="M184.13,13.77h119a5.3,5.3,0,0,1,5.3,5.3V38.34a5.3,5.3,0,0,1-5.3,5.3H214.85a5.3,5.3,0,0,0-5.3,5.3V98.29a5.3,5.3,0,0,0,5.3,5.3h73.84a5.3,5.3,0,0,1,5.3,5.3v17.54a5.3,5.3,0,0,1-5.3,5.3H214.85a5.3,5.3,0,0,0-5.3,5.3V188.1a5.3,5.3,0,0,0,5.3,5.3h88.31a5.3,5.3,0,0,1,5.3,5.3V218a5.29,5.29,0,0,1-5.3,5.3h-119a5.3,5.3,0,0,1-5.3-5.3V19.07a5.3,5.3,0,0,1,5.3-5.3" transform="translate(-13.18 -13.77)"/><path class="b" d="M340.71,13.77h17.91a6.4,6.4,0,0,1,6.4,6.41V216.86a6.4,6.4,0,0,1-6.4,6.41H340.71a6.4,6.4,0,0,1-6.4-6.41V20.17a6.4,6.4,0,0,1,6.4-6.41" transform="translate(-13.18 -13.77)"/><path class="b" d="M390.88,20.3a6.53,6.53,0,0,1,6.54-6.53h64.46q41.21.29,61.82,35.34A64.27,64.27,0,0,1,533,73.83q1.53,12.93,1.53,44.69,0,33.76-2.36,47.13a53.83,53.83,0,0,1-3.34,12.07,112.86,112.86,0,0,1-5.7,10.77,71.75,71.75,0,0,1-24.78,24.43q-15.73,10.34-38.56,10.35H397.41a6.53,6.53,0,0,1-6.54-6.54ZM421.6,186.86a6.53,6.53,0,0,0,6.53,6.53h30.25q25.92,0,37.63-18.29,5.15-6.77,6.55-17.13t1.26-38.3q0-27.36-1.26-39.17-1.67-11.81-7.94-19.15-12.83-18.28-36.23-17.71H428.13a6.53,6.53,0,0,0-6.53,6.53Z" transform="translate(-13.18 -13.77)"/><path class="c" d="M100.6,82.31a31.72,31.72,0,0,1,8.53-6.07,1.1,1.1,0,0,0,.55-1.39l-4-10.09a1.11,1.11,0,0,0-1-.7H14.29a1.11,1.11,0,0,0-1.11,1.11v35.37a1.11,1.11,0,0,0,1.11,1.11H90.46a1.1,1.1,0,0,0,1.08-1A31.81,31.81,0,0,1,100.6,82.31Z" transform="translate(-13.18 -13.77)"/><path class="c" d="M107.66,248.16H14.29a1.11,1.11,0,0,0-1.11,1.11v35.58a1.11,1.11,0,0,0,1.11,1.11H117.9a1.11,1.11,0,0,0,1.06-1.41L108.72,249A1.11,1.11,0,0,0,107.66,248.16Z" transform="translate(-13.18 -13.77)"/><path class="c" d="M103.38,230.38a1.1,1.1,0,0,0-1.2-.78,29.73,29.73,0,0,1-3.71.25A31.8,31.8,0,0,1,67,203.14a1.1,1.1,0,0,0-1.08-.93H14.29a1.11,1.11,0,0,0-1.11,1.11v35.47a1.11,1.11,0,0,0,1.11,1.11h90.36a1.11,1.11,0,0,0,1.06-1.41Z" transform="translate(-13.18 -13.77)"/><path class="c" d="M75.93,175.44a31.8,31.8,0,0,1,22.53-9.33,30.3,30.3,0,0,1,4.23.31,1.1,1.1,0,0,0,1.21-.76l2.46-8.07a1.11,1.11,0,0,0-1.06-1.43h-91a1.11,1.11,0,0,0-1.11,1.11v35.37a1.11,1.11,0,0,0,1.11,1.11H66a1.1,1.1,0,0,0,1.08-.93A31.78,31.78,0,0,1,75.93,175.44Z" transform="translate(-13.18 -13.77)"/><path class="b" d="M123.14,73a31.8,31.8,0,0,1,22.53,9.33,31.17,31.17,0,0,1,3.73,4.51,1.11,1.11,0,0,0,2-.66V21.74a8,8,0,0,0-8-8H96.13a1.11,1.11,0,0,0-1,1.51l22.8,57.3a1.1,1.1,0,0,0,1.17.68A30.17,30.17,0,0,1,123.14,73Z" transform="translate(-13.18 -13.77)"/><path class="c" d="M84.47,13.77H19.81a6.63,6.63,0,0,0-6.63,6.63V55a.6.6,0,0,0,.6.6h86.87a.93.93,0,0,0,.86-1.27L85.72,14.62A1.34,1.34,0,0,0,84.47,13.77Z" transform="translate(-13.18 -13.77)"/><path class="c" d="M112.92,136.12a1.1,1.1,0,0,0-.69-1.35A31.7,31.7,0,0,1,91.91,111a1.1,1.1,0,0,0-1.08-.9H14.29a1.11,1.11,0,0,0-1.11,1.11v35.37a1.11,1.11,0,0,0,1.11,1.11h94.28a1.11,1.11,0,0,0,1.06-.78Z" transform="translate(-13.18 -13.77)"/><path class="c" d="M13.18,295.31v32.85a8,8,0,0,0,8,8H132.34a1.11,1.11,0,0,0,1.06-1.41L122,295a1.11,1.11,0,0,0-1.06-.8H14.29A1.11,1.11,0,0,0,13.18,295.31Z" transform="translate(-13.18 -13.77)"/><path class="b" d="M145.67,127.37a31.8,31.8,0,0,1-22.53,9.33c-.51,0-1-.05-1.52-.08L112,168.13a1.09,1.09,0,0,0,.57,1.3,31.83,31.83,0,0,1-.46,57.32,1.1,1.1,0,0,0-.6,1.3l30.87,107.28a1.11,1.11,0,0,0,1.06.8h0a8,8,0,0,0,8-8V123.52a1.11,1.11,0,0,0-2-.66A31.18,31.18,0,0,1,145.67,127.37Z" transform="translate(-13.18 -13.77)"/><path class="a" d="M111.41,185a18.55,18.55,0,0,0-3.7-2.84,18.07,18.07,0,0,0-3.9-1.73,18.29,18.29,0,0,0-4.2-.74c-.38,0-.76-.06-1.14-.06a18.31,18.31,0,0,0,0,36.62c.29,0,.57,0,.85,0a18.31,18.31,0,0,0,4.21-.68,18.08,18.08,0,0,0,3.93-1.65,18.53,18.53,0,0,0,4-3,18.31,18.31,0,0,0,0-25.9ZM98.46,198h0Z" transform="translate(-13.18 -13.77)"/><line class="a" x1="85.28" y1="184.21" x2="85.28" y2="184.21"/><path class="a" d="M136.09,91.89a18.22,18.22,0,0,0-12.63-5.35l-.32,0a18.43,18.43,0,0,0-4.06.47,18,18,0,0,0-4,1.42,18.46,18.46,0,0,0-4.89,3.48,18.24,18.24,0,0,0-5.07,9.74,18,18,0,0,0,.48,8.47,18.38,18.38,0,0,0,15.74,13c.59.06,1.19.09,1.8.09a18.52,18.52,0,0,0,2.67-.22,18.3,18.3,0,0,0,10.28-31Z" transform="translate(-13.18 -13.77)"/><path class="b" d="M661,134.9a4.83,4.83,0,0,1,2.19-6.55q34.15-16,34.68-56.1-.84-29-20.12-44.69-16-13.79-41.39-13.79h-70.9c-4.54,0-4.59,3.09-4.59,6.42V216.86c0,3.33,1.26,6.41,4.59,6.41H582.9a4.86,4.86,0,0,0,4.86-4.86v-79.8a4.87,4.87,0,0,1,4.87-4.87H624a4.87,4.87,0,0,1,4.41,2.81l34.63,83.93a4.86,4.86,0,0,0,4.4,2.8H693a4.87,4.87,0,0,0,4.34-7.06Zm-26.61-29.3H592.63a4.87,4.87,0,0,1-4.87-4.87V46.79a4.87,4.87,0,0,1,4.87-4.87H636q14.79,0,22.61,6.48,9.9,7.35,10.19,23.77,0,13.68-8.51,23.05-8.66,10.09-26,10.37" transform="translate(-13.18 -13.77)"/></svg>