<?xml version="1.0" encoding="utf-8"?>
<!-- Generator: Adobe Illustrator 19.2.1, SVG Export Plug-In . SVG Version: 6.00 Build 0)  -->
<!DOCTYPE svg PUBLIC "-//W3C//DTD SVG 1.1//EN" "http://www.w3.org/Graphics/SVG/1.1/DTD/svg11.dtd">
<svg version="1.1" id="Layer_1" xmlns="http://www.w3.org/2000/svg" xmlns:xlink="http://www.w3.org/1999/xlink" x="0px" y="0px"
	 viewBox="0 0 331.1 212.9" style="enable-background:new 0 0 331.1 212.9;" xml:space="preserve">
<style type="text/css">
	.st0{fill:#666766;}
	.st1{fill:#D36A28;}
	.st2{fill:#6CAB36;}
</style>
<g>
	<polygon class="st0" points="13,195.3 21.1,195.3 21.1,196.9 14.7,196.9 14.7,200.7 20.7,200.7 20.7,202.3 14.7,202.3 14.7,206.3 
		21.4,206.3 21.4,207.9 13,207.9 	"/>
	<path class="st0" d="M23.4,199.5h1.5v1.3h0c0-0.1,0.1-0.3,0.3-0.4c0.1-0.2,0.3-0.3,0.6-0.5c0.2-0.2,0.5-0.3,0.8-0.4
		c0.3-0.1,0.7-0.2,1-0.2c0.6,0,1.2,0.1,1.6,0.4c0.4,0.3,0.8,0.7,1,1.2c0.3-0.5,0.7-0.9,1.2-1.2c0.5-0.3,1-0.4,1.5-0.4
		c0.7,0,1.2,0.1,1.6,0.3c0.4,0.2,0.7,0.5,1,0.8c0.2,0.3,0.4,0.7,0.5,1.2c0.1,0.4,0.1,0.9,0.1,1.4v4.9h-1.6v-4.7c0-0.3,0-0.6-0.1-0.9
		c0-0.3-0.1-0.6-0.3-0.8c-0.1-0.2-0.3-0.4-0.6-0.5c-0.2-0.1-0.6-0.2-0.9-0.2c-0.8,0-1.3,0.2-1.7,0.7c-0.3,0.5-0.5,1.1-0.5,1.8v4.6
		H29v-4.4c0-0.4,0-0.8-0.1-1.1c0-0.3-0.1-0.6-0.2-0.9c-0.1-0.2-0.3-0.4-0.5-0.6c-0.2-0.1-0.5-0.2-0.9-0.2c-0.3,0-0.6,0.1-0.8,0.2
		c-0.3,0.1-0.5,0.3-0.7,0.5c-0.2,0.2-0.4,0.5-0.5,0.9c-0.1,0.3-0.2,0.8-0.2,1.2v4.4h-1.6V199.5z"/>
	<path class="st0" d="M39.8,204.3c0,0.4,0.1,0.7,0.2,1c0.2,0.3,0.4,0.6,0.6,0.8c0.3,0.2,0.6,0.4,0.9,0.5c0.3,0.1,0.7,0.2,1.1,0.2
		c0.5,0,0.9-0.1,1.3-0.3c0.4-0.2,0.7-0.5,1-0.9l1.2,0.9c-0.9,1.1-2.1,1.7-3.7,1.7c-0.7,0-1.3-0.1-1.8-0.3c-0.5-0.2-1-0.5-1.4-0.9
		c-0.4-0.4-0.7-0.9-0.9-1.4c-0.2-0.5-0.3-1.1-0.3-1.7c0-0.6,0.1-1.2,0.3-1.7c0.2-0.5,0.5-1,0.9-1.4c0.4-0.4,0.8-0.7,1.4-0.9
		c0.5-0.2,1.1-0.3,1.7-0.3c0.7,0,1.4,0.1,1.9,0.4c0.5,0.3,0.9,0.6,1.3,1c0.3,0.4,0.6,0.9,0.7,1.4c0.1,0.5,0.2,1.1,0.2,1.6v0.6H39.8z
		 M44.8,203c0-0.4-0.1-0.7-0.2-1c-0.1-0.3-0.3-0.6-0.5-0.8c-0.2-0.2-0.5-0.4-0.8-0.5c-0.3-0.1-0.7-0.2-1.1-0.2
		c-0.4,0-0.7,0.1-1.1,0.2c-0.3,0.1-0.6,0.3-0.8,0.6c-0.2,0.2-0.4,0.5-0.5,0.8c-0.1,0.3-0.2,0.6-0.2,0.9H44.8z"/>
	<path class="st0" d="M48.4,199.5H50v1.3h0c0.1-0.2,0.2-0.4,0.4-0.6c0.2-0.2,0.4-0.3,0.6-0.5c0.2-0.1,0.5-0.2,0.7-0.3
		c0.3-0.1,0.5-0.1,0.8-0.1c0.3,0,0.5,0,0.7,0.1l-0.1,1.7c-0.1,0-0.3-0.1-0.4-0.1c-0.1,0-0.3,0-0.4,0c-0.8,0-1.4,0.2-1.8,0.7
		c-0.4,0.4-0.6,1.1-0.6,2v4.2h-1.6V199.5z"/>
	<path class="st0" d="M63.1,207.8c0,0.6-0.1,1.2-0.3,1.7c-0.2,0.5-0.5,1-0.9,1.4c-0.4,0.4-0.9,0.7-1.5,0.9c-0.6,0.2-1.2,0.3-1.9,0.3
		c-0.8,0-1.5-0.1-2.2-0.3c-0.7-0.2-1.3-0.6-1.9-1.2l1.1-1.3c0.4,0.5,0.9,0.8,1.3,1c0.5,0.2,1,0.3,1.7,0.3c0.6,0,1.1-0.1,1.5-0.3
		c0.4-0.2,0.7-0.4,0.9-0.7c0.2-0.3,0.4-0.6,0.5-0.9c0.1-0.3,0.1-0.7,0.1-1.1v-1.2h-0.1c-0.3,0.5-0.7,0.9-1.3,1.1
		c-0.5,0.2-1.1,0.4-1.7,0.4c-0.6,0-1.2-0.1-1.7-0.3c-0.5-0.2-1-0.5-1.4-0.9c-0.4-0.4-0.7-0.8-0.9-1.4c-0.2-0.5-0.3-1.1-0.3-1.7
		s0.1-1.2,0.3-1.7c0.2-0.5,0.5-1,0.9-1.4c0.4-0.4,0.8-0.7,1.3-0.9c0.5-0.2,1.1-0.3,1.8-0.3c0.6,0,1.1,0.1,1.7,0.4s1,0.6,1.3,1h0
		v-1.2h1.6V207.8z M58.7,200.8c-0.4,0-0.8,0.1-1.2,0.2c-0.3,0.1-0.6,0.3-0.9,0.6c-0.2,0.3-0.4,0.6-0.6,0.9c-0.1,0.4-0.2,0.8-0.2,1.2
		c0,0.9,0.2,1.5,0.7,2c0.5,0.5,1.2,0.8,2,0.8c0.9,0,1.5-0.3,2-0.8c0.5-0.5,0.7-1.2,0.7-2c0-0.4-0.1-0.8-0.2-1.2
		c-0.1-0.4-0.3-0.7-0.6-0.9c-0.2-0.3-0.5-0.5-0.9-0.6C59.5,200.9,59.2,200.8,58.7,200.8z"/>
	<path class="st0" d="M65.3,196.5c0-0.3,0.1-0.6,0.3-0.8c0.2-0.2,0.5-0.3,0.8-0.3c0.3,0,0.6,0.1,0.8,0.3c0.2,0.2,0.3,0.5,0.3,0.8
		c0,0.3-0.1,0.6-0.3,0.8c-0.2,0.2-0.5,0.3-0.8,0.3c-0.3,0-0.6-0.1-0.8-0.3C65.4,197.1,65.3,196.8,65.3,196.5z M65.6,199.5h1.6v8.4
		h-1.6V199.5z"/>
	<path class="st0" d="M69.8,199.5h1.6v1.3h0c0.2-0.4,0.6-0.8,1-1.1c0.5-0.3,1.1-0.4,1.7-0.4c0.4,0,0.8,0.1,1.2,0.2
		c0.4,0.1,0.7,0.3,1,0.6c0.3,0.3,0.5,0.6,0.7,1c0.2,0.4,0.2,0.9,0.2,1.4v5.4h-1.6v-5c0-0.4-0.1-0.7-0.2-1c-0.1-0.3-0.2-0.5-0.4-0.7
		c-0.2-0.2-0.4-0.3-0.6-0.4c-0.2-0.1-0.5-0.1-0.7-0.1c-0.3,0-0.6,0.1-0.9,0.2c-0.3,0.1-0.5,0.3-0.7,0.5c-0.2,0.2-0.4,0.5-0.5,0.9
		c-0.1,0.4-0.2,0.8-0.2,1.3v4.3h-1.6V199.5z"/>
	<path class="st0" d="M88.1,207.8c0,0.6-0.1,1.2-0.3,1.7c-0.2,0.5-0.5,1-0.9,1.4c-0.4,0.4-0.9,0.7-1.5,0.9c-0.6,0.2-1.2,0.3-1.9,0.3
		c-0.8,0-1.5-0.1-2.2-0.3c-0.7-0.2-1.3-0.6-1.9-1.2l1.1-1.3c0.4,0.5,0.9,0.8,1.3,1c0.5,0.2,1,0.3,1.7,0.3c0.6,0,1.1-0.1,1.5-0.3
		c0.4-0.2,0.7-0.4,0.9-0.7c0.2-0.3,0.4-0.6,0.5-0.9c0.1-0.3,0.1-0.7,0.1-1.1v-1.2h-0.1c-0.3,0.5-0.7,0.9-1.3,1.1
		c-0.5,0.2-1.1,0.4-1.7,0.4c-0.6,0-1.2-0.1-1.7-0.3c-0.5-0.2-1-0.5-1.4-0.9s-0.7-0.8-0.9-1.4c-0.2-0.5-0.3-1.1-0.3-1.7
		s0.1-1.2,0.3-1.7c0.2-0.5,0.5-1,0.9-1.4c0.4-0.4,0.8-0.7,1.3-0.9c0.5-0.2,1.1-0.3,1.8-0.3c0.6,0,1.1,0.1,1.7,0.4
		c0.5,0.2,1,0.6,1.3,1h0v-1.2h1.6V207.8z M83.7,200.8c-0.4,0-0.8,0.1-1.2,0.2c-0.3,0.1-0.6,0.3-0.9,0.6c-0.2,0.3-0.4,0.6-0.6,0.9
		c-0.1,0.4-0.2,0.8-0.2,1.2c0,0.9,0.2,1.5,0.7,2c0.5,0.5,1.2,0.8,2,0.8c0.9,0,1.5-0.3,2-0.8c0.5-0.5,0.7-1.2,0.7-2
		c0-0.4-0.1-0.8-0.2-1.2c-0.1-0.4-0.3-0.7-0.6-0.9c-0.2-0.3-0.5-0.5-0.9-0.6C84.5,200.9,84.1,200.8,83.7,200.8z"/>
	<rect x="95.8" y="195.3" class="st0" width="1.7" height="12.6"/>
	<path class="st0" d="M100.4,199.5h1.6v1.3h0c0.2-0.4,0.6-0.8,1-1.1c0.5-0.3,1.1-0.4,1.7-0.4c0.4,0,0.8,0.1,1.2,0.2
		c0.4,0.1,0.7,0.3,1,0.6c0.3,0.3,0.5,0.6,0.7,1c0.2,0.4,0.2,0.9,0.2,1.4v5.4h-1.6v-5c0-0.4-0.1-0.7-0.2-1c-0.1-0.3-0.2-0.5-0.4-0.7
		c-0.2-0.2-0.4-0.3-0.6-0.4c-0.2-0.1-0.5-0.1-0.7-0.1c-0.3,0-0.6,0.1-0.9,0.2c-0.3,0.1-0.5,0.3-0.7,0.5c-0.2,0.2-0.4,0.5-0.5,0.9
		c-0.1,0.4-0.2,0.8-0.2,1.3v4.3h-1.6V199.5z"/>
	<path class="st0" d="M110.9,200.9H109v-1.4h1.8v-1.9c0-1.1,0.2-2,0.6-2.5c0.4-0.6,1.2-0.8,2.2-0.8c0.2,0,0.4,0,0.6,0
		c0.2,0,0.4,0,0.6,0.1l-0.2,1.4c-0.2-0.1-0.3-0.1-0.4-0.1c-0.1,0-0.3,0-0.5,0c-0.3,0-0.5,0-0.7,0.1c-0.2,0.1-0.3,0.2-0.4,0.4
		c-0.1,0.2-0.2,0.4-0.2,0.6c0,0.2,0,0.5,0,0.8v1.9h1.9v1.4h-1.9v7h-1.6V200.9z"/>
	<path class="st0" d="M117.3,204.3c0,0.4,0.1,0.7,0.2,1c0.2,0.3,0.4,0.6,0.6,0.8c0.3,0.2,0.6,0.4,0.9,0.5c0.3,0.1,0.7,0.2,1.1,0.2
		c0.5,0,0.9-0.1,1.3-0.3c0.4-0.2,0.7-0.5,1-0.9l1.2,0.9c-0.9,1.1-2.1,1.7-3.7,1.7c-0.7,0-1.3-0.1-1.8-0.3c-0.5-0.2-1-0.5-1.4-0.9
		c-0.4-0.4-0.7-0.9-0.9-1.4c-0.2-0.5-0.3-1.1-0.3-1.7c0-0.6,0.1-1.2,0.3-1.7c0.2-0.5,0.5-1,0.9-1.4c0.4-0.4,0.8-0.7,1.4-0.9
		c0.5-0.2,1.1-0.3,1.7-0.3c0.7,0,1.4,0.1,1.9,0.4c0.5,0.3,0.9,0.6,1.3,1c0.3,0.4,0.6,0.9,0.7,1.4c0.1,0.5,0.2,1.1,0.2,1.6v0.6H117.3
		z M122.4,203c0-0.4-0.1-0.7-0.2-1c-0.1-0.3-0.3-0.6-0.5-0.8c-0.2-0.2-0.5-0.4-0.8-0.5c-0.3-0.1-0.7-0.2-1.1-0.2
		c-0.4,0-0.7,0.1-1.1,0.2c-0.3,0.1-0.6,0.3-0.8,0.6c-0.2,0.2-0.4,0.5-0.5,0.8c-0.1,0.3-0.2,0.6-0.2,0.9H122.4z"/>
	<path class="st0" d="M132,201.7c-0.3-0.3-0.6-0.5-0.9-0.7c-0.3-0.2-0.7-0.2-1.2-0.2c-0.4,0-0.8,0.1-1.1,0.2
		c-0.3,0.2-0.6,0.4-0.8,0.7c-0.2,0.3-0.4,0.6-0.5,1c-0.1,0.4-0.2,0.7-0.2,1.1c0,0.4,0.1,0.8,0.2,1.1c0.1,0.3,0.3,0.7,0.6,0.9
		c0.2,0.3,0.5,0.5,0.9,0.6c0.3,0.1,0.7,0.2,1.1,0.2c0.4,0,0.8-0.1,1.2-0.2c0.3-0.2,0.6-0.4,0.9-0.7l1.1,1.1c-0.4,0.5-0.9,0.8-1.4,1
		c-0.6,0.2-1.1,0.3-1.7,0.3c-0.7,0-1.2-0.1-1.8-0.3c-0.5-0.2-1-0.5-1.4-0.9c-0.4-0.4-0.7-0.8-0.9-1.4c-0.2-0.5-0.3-1.1-0.3-1.8
		c0-0.7,0.1-1.2,0.3-1.8c0.2-0.5,0.5-1,0.9-1.4c0.4-0.4,0.8-0.7,1.4-0.9c0.5-0.2,1.1-0.3,1.8-0.3c0.6,0,1.2,0.1,1.8,0.3
		c0.6,0.2,1.1,0.6,1.5,1L132,201.7z"/>
	<path class="st0" d="M139.1,200.9h-2.3v3.8c0,0.2,0,0.5,0,0.7c0,0.2,0.1,0.4,0.1,0.6c0.1,0.2,0.2,0.3,0.4,0.4
		c0.2,0.1,0.4,0.2,0.7,0.2c0.2,0,0.4,0,0.6-0.1c0.2,0,0.4-0.1,0.6-0.2v1.5c-0.2,0.1-0.4,0.2-0.7,0.2c-0.3,0-0.5,0.1-0.7,0.1
		c-0.6,0-1.1-0.1-1.4-0.3c-0.3-0.2-0.6-0.4-0.7-0.7c-0.2-0.3-0.3-0.6-0.3-0.9c0-0.3,0-0.7,0-1v-4.4h-1.8v-1.4h1.8v-2.4h1.6v2.4h2.3
		V200.9z"/>
	<path class="st0" d="M140.9,196.5c0-0.3,0.1-0.6,0.3-0.8c0.2-0.2,0.5-0.3,0.8-0.3c0.3,0,0.6,0.1,0.8,0.3c0.2,0.2,0.3,0.5,0.3,0.8
		c0,0.3-0.1,0.6-0.3,0.8c-0.2,0.2-0.5,0.3-0.8,0.3c-0.3,0-0.6-0.1-0.8-0.3C141,197.1,140.9,196.8,140.9,196.5z M141.3,199.5h1.6v8.4
		h-1.6V199.5z"/>
	<path class="st0" d="M145,203.7c0-0.6,0.1-1.2,0.3-1.7c0.2-0.5,0.5-1,1-1.4s0.9-0.7,1.4-1c0.5-0.2,1.1-0.3,1.8-0.3
		c0.6,0,1.2,0.1,1.8,0.3c0.5,0.2,1,0.5,1.4,1c0.4,0.4,0.7,0.9,0.9,1.4c0.2,0.5,0.3,1.1,0.3,1.7s-0.1,1.2-0.3,1.7
		c-0.2,0.5-0.5,1-0.9,1.4c-0.4,0.4-0.9,0.7-1.4,0.9c-0.5,0.2-1.1,0.3-1.8,0.3c-0.6,0-1.2-0.1-1.8-0.3c-0.5-0.2-1-0.5-1.4-0.9
		s-0.7-0.9-1-1.4C145.1,204.9,145,204.3,145,203.7z M146.7,203.7c0,0.4,0.1,0.8,0.2,1.2c0.1,0.4,0.3,0.7,0.6,0.9
		c0.2,0.3,0.5,0.5,0.9,0.6c0.3,0.1,0.7,0.2,1.2,0.2c0.4,0,0.8-0.1,1.2-0.2c0.3-0.1,0.6-0.3,0.9-0.6c0.2-0.3,0.4-0.6,0.6-0.9
		c0.1-0.4,0.2-0.8,0.2-1.2c0-0.4-0.1-0.8-0.2-1.2c-0.1-0.4-0.3-0.7-0.6-0.9c-0.2-0.3-0.5-0.5-0.9-0.6c-0.3-0.1-0.7-0.2-1.2-0.2
		c-0.4,0-0.8,0.1-1.2,0.2c-0.3,0.1-0.6,0.3-0.9,0.6c-0.2,0.3-0.4,0.6-0.6,0.9C146.8,202.9,146.7,203.3,146.7,203.7z"/>
	<path class="st0" d="M163.4,207.9h-1.6v-1.3h0c-0.2,0.4-0.6,0.8-1,1.1c-0.5,0.3-1.1,0.4-1.7,0.4c-0.4,0-0.8-0.1-1.2-0.2
		c-0.4-0.1-0.7-0.3-1-0.6c-0.3-0.3-0.5-0.6-0.7-1c-0.2-0.4-0.2-0.9-0.2-1.4v-5.4h1.6v5c0,0.4,0.1,0.7,0.2,1c0.1,0.3,0.2,0.5,0.4,0.7
		c0.2,0.2,0.4,0.3,0.6,0.4c0.2,0.1,0.5,0.1,0.7,0.1c0.3,0,0.6-0.1,0.9-0.2s0.5-0.3,0.7-0.5s0.4-0.5,0.5-0.9c0.1-0.4,0.2-0.8,0.2-1.3
		v-4.3h1.6V207.9z"/>
	<path class="st0" d="M170.3,201.6c-0.2-0.2-0.4-0.4-0.7-0.6c-0.3-0.2-0.6-0.2-1-0.2c-0.4,0-0.7,0.1-1,0.2c-0.3,0.2-0.4,0.4-0.4,0.7
		c0,0.2,0.1,0.5,0.2,0.6c0.2,0.2,0.3,0.3,0.6,0.4c0.2,0.1,0.5,0.2,0.7,0.2c0.2,0,0.5,0.1,0.6,0.1c0.3,0.1,0.7,0.2,1,0.3
		c0.3,0.1,0.6,0.3,0.8,0.5c0.2,0.2,0.4,0.4,0.5,0.7c0.1,0.3,0.2,0.6,0.2,1c0,0.5-0.1,0.9-0.3,1.2c-0.2,0.3-0.5,0.6-0.8,0.8
		c-0.3,0.2-0.7,0.4-1.1,0.5c-0.4,0.1-0.8,0.1-1.2,0.1c-0.7,0-1.3-0.1-1.8-0.3c-0.5-0.2-1-0.6-1.4-1.2l1.2-1c0.3,0.3,0.5,0.5,0.9,0.7
		c0.3,0.2,0.7,0.3,1.2,0.3c0.2,0,0.4,0,0.6-0.1c0.2,0,0.4-0.1,0.6-0.2c0.2-0.1,0.3-0.2,0.4-0.3c0.1-0.1,0.2-0.3,0.2-0.5
		c0-0.2-0.1-0.4-0.2-0.6c-0.1-0.2-0.3-0.3-0.5-0.4c-0.2-0.1-0.4-0.2-0.7-0.2c-0.2-0.1-0.4-0.1-0.6-0.1c-0.3-0.1-0.7-0.2-1-0.3
		c-0.3-0.1-0.6-0.2-0.8-0.4c-0.2-0.2-0.4-0.4-0.6-0.7c-0.1-0.3-0.2-0.6-0.2-1c0-0.4,0.1-0.8,0.3-1.1c0.2-0.3,0.4-0.6,0.7-0.8
		c0.3-0.2,0.6-0.4,1-0.5c0.4-0.1,0.8-0.2,1.2-0.2c0.6,0,1.1,0.1,1.6,0.3c0.5,0.2,0.9,0.6,1.2,1.1L170.3,201.6z"/>
	<path class="st0" d="M178.7,195.3h4.4c0.9,0,1.7,0.1,2.3,0.3c0.7,0.2,1.2,0.5,1.7,0.8c0.5,0.3,0.9,0.7,1.2,1.2
		c0.3,0.4,0.6,0.9,0.8,1.3c0.2,0.5,0.3,0.9,0.4,1.4s0.1,0.9,0.1,1.3c0,0.8-0.1,1.6-0.4,2.3c-0.3,0.8-0.7,1.4-1.3,2
		c-0.6,0.6-1.3,1.1-2.2,1.4c-0.9,0.4-1.8,0.5-3,0.5h-4.1V195.3z M180.5,206.3h2.1c0.7,0,1.4-0.1,2-0.3c0.6-0.2,1.2-0.5,1.7-0.9
		c0.5-0.4,0.9-0.9,1.2-1.5c0.3-0.6,0.4-1.3,0.4-2.1c0-0.4-0.1-0.9-0.2-1.4c-0.1-0.5-0.4-1.1-0.7-1.5c-0.4-0.5-0.9-0.9-1.5-1.2
		c-0.6-0.3-1.5-0.5-2.5-0.5h-2.6V206.3z"/>
	<path class="st0" d="M191.5,196.5c0-0.3,0.1-0.6,0.3-0.8c0.2-0.2,0.5-0.3,0.8-0.3c0.3,0,0.6,0.1,0.8,0.3c0.2,0.2,0.3,0.5,0.3,0.8
		c0,0.3-0.1,0.6-0.3,0.8c-0.2,0.2-0.5,0.3-0.8,0.3c-0.3,0-0.6-0.1-0.8-0.3C191.6,197.1,191.5,196.8,191.5,196.5z M191.9,199.5h1.6
		v8.4h-1.6V199.5z"/>
	<path class="st0" d="M200.5,201.6c-0.2-0.2-0.4-0.4-0.7-0.6c-0.3-0.2-0.6-0.2-1-0.2c-0.4,0-0.7,0.1-1,0.2c-0.3,0.2-0.4,0.4-0.4,0.7
		c0,0.2,0.1,0.5,0.2,0.6c0.2,0.2,0.3,0.3,0.6,0.4c0.2,0.1,0.5,0.2,0.7,0.2c0.2,0,0.5,0.1,0.6,0.1c0.3,0.1,0.7,0.2,1,0.3
		c0.3,0.1,0.6,0.3,0.8,0.5c0.2,0.2,0.4,0.4,0.5,0.7c0.1,0.3,0.2,0.6,0.2,1c0,0.5-0.1,0.9-0.3,1.2c-0.2,0.3-0.5,0.6-0.8,0.8
		c-0.3,0.2-0.7,0.4-1.1,0.5c-0.4,0.1-0.8,0.1-1.2,0.1c-0.7,0-1.3-0.1-1.8-0.3c-0.5-0.2-1-0.6-1.4-1.2l1.2-1c0.3,0.3,0.6,0.5,0.9,0.7
		c0.3,0.2,0.7,0.3,1.2,0.3c0.2,0,0.4,0,0.6-0.1c0.2,0,0.4-0.1,0.5-0.2c0.2-0.1,0.3-0.2,0.4-0.3c0.1-0.1,0.1-0.3,0.1-0.5
		c0-0.2-0.1-0.4-0.2-0.6c-0.1-0.2-0.3-0.3-0.5-0.4c-0.2-0.1-0.4-0.2-0.7-0.2c-0.2-0.1-0.4-0.1-0.6-0.1c-0.3-0.1-0.7-0.2-1-0.3
		c-0.3-0.1-0.6-0.2-0.8-0.4c-0.2-0.2-0.4-0.4-0.6-0.7c-0.1-0.3-0.2-0.6-0.2-1c0-0.4,0.1-0.8,0.3-1.1c0.2-0.3,0.4-0.6,0.7-0.8
		c0.3-0.2,0.6-0.4,1-0.5c0.4-0.1,0.8-0.2,1.2-0.2c0.6,0,1.1,0.1,1.6,0.3c0.5,0.2,0.9,0.6,1.2,1.1L200.5,201.6z"/>
	<path class="st0" d="M205.1,204.3c0,0.4,0.1,0.7,0.2,1c0.2,0.3,0.4,0.6,0.6,0.8c0.3,0.2,0.6,0.4,0.9,0.5c0.3,0.1,0.7,0.2,1.1,0.2
		c0.5,0,0.9-0.1,1.3-0.3c0.4-0.2,0.7-0.5,1-0.9l1.2,0.9c-0.9,1.1-2.1,1.7-3.7,1.7c-0.7,0-1.3-0.1-1.8-0.3c-0.5-0.2-1-0.5-1.4-0.9
		c-0.4-0.4-0.7-0.9-0.9-1.4c-0.2-0.5-0.3-1.1-0.3-1.7c0-0.6,0.1-1.2,0.3-1.7c0.2-0.5,0.5-1,0.9-1.4c0.4-0.4,0.8-0.7,1.4-0.9
		c0.5-0.2,1.1-0.3,1.7-0.3c0.7,0,1.4,0.1,1.9,0.4c0.5,0.3,0.9,0.6,1.3,1c0.3,0.4,0.6,0.9,0.7,1.4c0.1,0.5,0.2,1.1,0.2,1.6v0.6H205.1
		z M210.2,203c0-0.4-0.1-0.7-0.2-1c-0.1-0.3-0.3-0.6-0.5-0.8c-0.2-0.2-0.5-0.4-0.8-0.5c-0.3-0.1-0.7-0.2-1.1-0.2
		c-0.4,0-0.7,0.1-1.1,0.2c-0.3,0.1-0.6,0.3-0.8,0.6c-0.2,0.2-0.4,0.5-0.5,0.8c-0.1,0.3-0.2,0.6-0.2,0.9H210.2z"/>
	<path class="st0" d="M213.8,200.5c0.4-0.4,1-0.7,1.6-0.9c0.6-0.2,1.2-0.3,1.8-0.3c0.6,0,1.1,0.1,1.6,0.2c0.4,0.2,0.8,0.4,1.1,0.6
		c0.3,0.3,0.5,0.6,0.6,0.9c0.1,0.3,0.2,0.7,0.2,1.1v4.3c0,0.3,0,0.6,0,0.8c0,0.2,0,0.5,0.1,0.7h-1.4c0-0.4-0.1-0.9-0.1-1.3h0
		c-0.4,0.5-0.8,0.9-1.3,1.2c-0.5,0.2-1,0.3-1.7,0.3c-0.4,0-0.8-0.1-1.1-0.2c-0.4-0.1-0.7-0.3-0.9-0.5c-0.3-0.2-0.5-0.5-0.6-0.8
		c-0.2-0.3-0.2-0.7-0.2-1.1c0-0.5,0.1-1,0.4-1.4c0.2-0.4,0.6-0.7,1-0.9c0.4-0.2,0.9-0.4,1.5-0.5c0.6-0.1,1.2-0.2,1.8-0.2h1.2v-0.4
		c0-0.2,0-0.4-0.1-0.6c-0.1-0.2-0.2-0.4-0.4-0.6c-0.2-0.2-0.4-0.3-0.6-0.4c-0.2-0.1-0.5-0.2-0.9-0.2c-0.3,0-0.6,0-0.8,0.1
		c-0.2,0.1-0.4,0.1-0.6,0.2c-0.2,0.1-0.4,0.2-0.5,0.3c-0.2,0.1-0.3,0.2-0.4,0.3L213.8,200.5z M218.3,203.9c-0.4,0-0.8,0-1.2,0.1
		c-0.4,0-0.8,0.1-1.1,0.2c-0.3,0.1-0.6,0.3-0.8,0.5c-0.2,0.2-0.3,0.5-0.3,0.8c0,0.5,0.2,0.8,0.5,1c0.3,0.2,0.8,0.3,1.3,0.3
		c0.4,0,0.8-0.1,1.1-0.2c0.3-0.1,0.6-0.3,0.7-0.6c0.2-0.2,0.3-0.5,0.4-0.8c0.1-0.3,0.1-0.6,0.1-0.9v-0.5H218.3z"/>
	<path class="st0" d="M227.5,201.6c-0.2-0.2-0.4-0.4-0.7-0.6c-0.3-0.2-0.6-0.2-1-0.2c-0.4,0-0.7,0.1-1,0.2c-0.3,0.2-0.4,0.4-0.4,0.7
		c0,0.2,0.1,0.5,0.2,0.6c0.2,0.2,0.3,0.3,0.6,0.4c0.2,0.1,0.5,0.2,0.7,0.2c0.2,0,0.5,0.1,0.6,0.1c0.3,0.1,0.7,0.2,1,0.3
		c0.3,0.1,0.6,0.3,0.8,0.5c0.2,0.2,0.4,0.4,0.5,0.7c0.1,0.3,0.2,0.6,0.2,1c0,0.5-0.1,0.9-0.3,1.2c-0.2,0.3-0.5,0.6-0.8,0.8
		c-0.3,0.2-0.7,0.4-1.1,0.5c-0.4,0.1-0.8,0.1-1.2,0.1c-0.7,0-1.3-0.1-1.8-0.3c-0.5-0.2-1-0.6-1.4-1.2l1.2-1c0.3,0.3,0.6,0.5,0.9,0.7
		c0.3,0.2,0.7,0.3,1.2,0.3c0.2,0,0.4,0,0.6-0.1c0.2,0,0.4-0.1,0.5-0.2c0.2-0.1,0.3-0.2,0.4-0.3c0.1-0.1,0.1-0.3,0.1-0.5
		c0-0.2-0.1-0.4-0.2-0.6c-0.1-0.2-0.3-0.3-0.5-0.4c-0.2-0.1-0.4-0.2-0.7-0.2c-0.2-0.1-0.4-0.1-0.6-0.1c-0.3-0.1-0.7-0.2-1-0.3
		c-0.3-0.1-0.6-0.2-0.8-0.4c-0.2-0.2-0.4-0.4-0.6-0.7c-0.1-0.3-0.2-0.6-0.2-1c0-0.4,0.1-0.8,0.3-1.1c0.2-0.3,0.4-0.6,0.7-0.8
		c0.3-0.2,0.6-0.4,1-0.5c0.4-0.1,0.8-0.2,1.2-0.2c0.6,0,1.1,0.1,1.6,0.3c0.5,0.2,0.9,0.6,1.2,1.1L227.5,201.6z"/>
	<path class="st0" d="M232.1,204.3c0,0.4,0.1,0.7,0.2,1c0.2,0.3,0.4,0.6,0.6,0.8c0.3,0.2,0.6,0.4,0.9,0.5c0.3,0.1,0.7,0.2,1.1,0.2
		c0.5,0,0.9-0.1,1.3-0.3c0.4-0.2,0.7-0.5,1-0.9l1.2,0.9c-0.9,1.1-2.1,1.7-3.7,1.7c-0.7,0-1.3-0.1-1.8-0.3c-0.5-0.2-1-0.5-1.4-0.9
		c-0.4-0.4-0.7-0.9-0.9-1.4c-0.2-0.5-0.3-1.1-0.3-1.7c0-0.6,0.1-1.2,0.3-1.7c0.2-0.5,0.5-1,0.9-1.4c0.4-0.4,0.8-0.7,1.4-0.9
		c0.5-0.2,1.1-0.3,1.7-0.3c0.7,0,1.4,0.1,1.9,0.4c0.5,0.3,0.9,0.6,1.3,1c0.3,0.4,0.6,0.9,0.7,1.4c0.1,0.5,0.2,1.1,0.2,1.6v0.6H232.1
		z M237.1,203c0-0.4-0.1-0.7-0.2-1c-0.1-0.3-0.3-0.6-0.5-0.8c-0.2-0.2-0.5-0.4-0.8-0.5c-0.3-0.1-0.7-0.2-1.1-0.2
		c-0.4,0-0.7,0.1-1.1,0.2c-0.3,0.1-0.6,0.3-0.8,0.6c-0.2,0.2-0.4,0.5-0.5,0.8c-0.1,0.3-0.2,0.6-0.2,0.9H237.1z"/>
	<path class="st0" d="M246.1,195.3h4.4c0.8,0,1.5,0.1,2,0.3c0.5,0.2,0.9,0.5,1.2,0.8c0.3,0.3,0.5,0.7,0.6,1.1
		c0.1,0.4,0.2,0.8,0.2,1.2c0,0.4-0.1,0.8-0.2,1.2c-0.1,0.4-0.3,0.7-0.6,1c-0.3,0.3-0.6,0.6-1,0.8c-0.4,0.2-0.8,0.3-1.3,0.4l3.6,5.7
		h-2.1l-3.2-5.5h-1.9v5.5h-1.7V195.3z M247.8,200.9h2.2c0.3,0,0.7,0,1-0.1c0.3-0.1,0.6-0.2,0.9-0.3c0.3-0.1,0.5-0.3,0.6-0.6
		c0.2-0.3,0.2-0.6,0.2-1c0-0.4-0.1-0.8-0.2-1c-0.2-0.3-0.4-0.5-0.6-0.6c-0.3-0.1-0.5-0.2-0.9-0.3c-0.3-0.1-0.7-0.1-1-0.1h-2.2V200.9
		z"/>
	<path class="st0" d="M257.7,204.3c0,0.4,0.1,0.7,0.2,1c0.2,0.3,0.4,0.6,0.6,0.8c0.3,0.2,0.6,0.4,0.9,0.5c0.3,0.1,0.7,0.2,1.1,0.2
		c0.5,0,0.9-0.1,1.3-0.3c0.4-0.2,0.7-0.5,1-0.9l1.2,0.9c-0.9,1.1-2.1,1.7-3.7,1.7c-0.7,0-1.3-0.1-1.8-0.3c-0.5-0.2-1-0.5-1.4-0.9
		c-0.4-0.4-0.7-0.9-0.9-1.4c-0.2-0.5-0.3-1.1-0.3-1.7c0-0.6,0.1-1.2,0.3-1.7c0.2-0.5,0.5-1,0.9-1.4c0.4-0.4,0.8-0.7,1.4-0.9
		c0.5-0.2,1.1-0.3,1.7-0.3c0.7,0,1.4,0.1,1.9,0.4c0.5,0.3,0.9,0.6,1.3,1c0.3,0.4,0.6,0.9,0.7,1.4c0.1,0.5,0.2,1.1,0.2,1.6v0.6H257.7
		z M262.8,203c0-0.4-0.1-0.7-0.2-1c-0.1-0.3-0.3-0.6-0.5-0.8c-0.2-0.2-0.5-0.4-0.8-0.5c-0.3-0.1-0.7-0.2-1.1-0.2
		c-0.4,0-0.7,0.1-1.1,0.2c-0.3,0.1-0.6,0.3-0.8,0.6c-0.2,0.2-0.4,0.5-0.5,0.8c-0.1,0.3-0.2,0.6-0.2,0.9H262.8z"/>
	<path class="st0" d="M266.4,199.5h1.6v1.2h0c0.3-0.5,0.7-0.8,1.3-1c0.5-0.2,1.1-0.4,1.7-0.4c0.7,0,1.2,0.1,1.8,0.3
		c0.5,0.2,1,0.5,1.3,0.9c0.4,0.4,0.7,0.9,0.9,1.4c0.2,0.5,0.3,1.1,0.3,1.7c0,0.6-0.1,1.2-0.3,1.7c-0.2,0.5-0.5,1-0.9,1.4
		c-0.4,0.4-0.8,0.7-1.3,0.9c-0.5,0.2-1.1,0.3-1.8,0.3c-0.6,0-1.2-0.1-1.7-0.4c-0.5-0.3-0.9-0.6-1.2-1h0v6.2h-1.6V199.5z
		 M270.8,200.8c-0.4,0-0.8,0.1-1.2,0.2c-0.3,0.1-0.6,0.3-0.9,0.6c-0.2,0.3-0.4,0.6-0.6,0.9c-0.1,0.4-0.2,0.8-0.2,1.2
		c0,0.4,0.1,0.8,0.2,1.2c0.1,0.4,0.3,0.7,0.6,0.9c0.2,0.3,0.5,0.5,0.9,0.6c0.3,0.1,0.7,0.2,1.2,0.2c0.4,0,0.8-0.1,1.2-0.2
		c0.3-0.1,0.6-0.3,0.9-0.6c0.2-0.3,0.4-0.6,0.5-0.9c0.1-0.4,0.2-0.8,0.2-1.2c0-0.4-0.1-0.8-0.2-1.2c-0.1-0.4-0.3-0.7-0.5-0.9
		c-0.2-0.3-0.5-0.5-0.9-0.6C271.6,200.9,271.2,200.8,270.8,200.8z"/>
	<path class="st0" d="M276.8,203.7c0-0.6,0.1-1.2,0.3-1.7c0.2-0.5,0.5-1,0.9-1.4c0.4-0.4,0.9-0.7,1.4-1c0.5-0.2,1.1-0.3,1.8-0.3
		c0.6,0,1.2,0.1,1.8,0.3c0.5,0.2,1,0.5,1.4,1c0.4,0.4,0.7,0.9,1,1.4c0.2,0.5,0.3,1.1,0.3,1.7s-0.1,1.2-0.3,1.7c-0.2,0.5-0.5,1-1,1.4
		c-0.4,0.4-0.9,0.7-1.4,0.9c-0.5,0.2-1.1,0.3-1.8,0.3c-0.6,0-1.2-0.1-1.8-0.3c-0.5-0.2-1-0.5-1.4-0.9c-0.4-0.4-0.7-0.9-0.9-1.4
		C277,204.9,276.8,204.3,276.8,203.7z M278.5,203.7c0,0.4,0.1,0.8,0.2,1.2c0.1,0.4,0.3,0.7,0.6,0.9c0.2,0.3,0.5,0.5,0.9,0.6
		c0.3,0.1,0.7,0.2,1.2,0.2c0.4,0,0.8-0.1,1.2-0.2c0.3-0.1,0.6-0.3,0.9-0.6c0.2-0.3,0.4-0.6,0.5-0.9c0.1-0.4,0.2-0.8,0.2-1.2
		c0-0.4-0.1-0.8-0.2-1.2c-0.1-0.4-0.3-0.7-0.5-0.9c-0.2-0.3-0.5-0.5-0.9-0.6c-0.3-0.1-0.7-0.2-1.2-0.2c-0.4,0-0.8,0.1-1.2,0.2
		c-0.3,0.1-0.6,0.3-0.9,0.6c-0.2,0.3-0.4,0.6-0.6,0.9C278.6,202.9,278.5,203.3,278.5,203.7z"/>
	<path class="st0" d="M292.3,201.6c-0.2-0.2-0.4-0.4-0.7-0.6c-0.3-0.2-0.6-0.2-1-0.2c-0.4,0-0.7,0.1-1,0.2c-0.3,0.2-0.4,0.4-0.4,0.7
		c0,0.2,0.1,0.5,0.2,0.6c0.2,0.2,0.3,0.3,0.6,0.4c0.2,0.1,0.5,0.2,0.7,0.2c0.2,0,0.5,0.1,0.6,0.1c0.3,0.1,0.7,0.2,1,0.3
		c0.3,0.1,0.6,0.3,0.8,0.5c0.2,0.2,0.4,0.4,0.5,0.7c0.1,0.3,0.2,0.6,0.2,1c0,0.5-0.1,0.9-0.3,1.2c-0.2,0.3-0.5,0.6-0.8,0.8
		c-0.3,0.2-0.7,0.4-1.1,0.5c-0.4,0.1-0.8,0.1-1.2,0.1c-0.7,0-1.3-0.1-1.8-0.3c-0.5-0.2-1-0.6-1.4-1.2l1.2-1c0.3,0.3,0.6,0.5,0.9,0.7
		c0.3,0.2,0.7,0.3,1.2,0.3c0.2,0,0.4,0,0.6-0.1c0.2,0,0.4-0.1,0.5-0.2c0.2-0.1,0.3-0.2,0.4-0.3c0.1-0.1,0.1-0.3,0.1-0.5
		c0-0.2-0.1-0.4-0.2-0.6c-0.1-0.2-0.3-0.3-0.5-0.4c-0.2-0.1-0.4-0.2-0.7-0.2c-0.2-0.1-0.4-0.1-0.6-0.1c-0.3-0.1-0.7-0.2-1-0.3
		c-0.3-0.1-0.6-0.2-0.8-0.4c-0.2-0.2-0.4-0.4-0.6-0.7c-0.1-0.3-0.2-0.6-0.2-1c0-0.4,0.1-0.8,0.3-1.1c0.2-0.3,0.4-0.6,0.7-0.8
		c0.3-0.2,0.6-0.4,1-0.5c0.4-0.1,0.8-0.2,1.2-0.2c0.6,0,1.1,0.1,1.6,0.3c0.5,0.2,0.9,0.6,1.2,1.1L292.3,201.6z"/>
	<path class="st0" d="M295.4,196.5c0-0.3,0.1-0.6,0.3-0.8c0.2-0.2,0.5-0.3,0.8-0.3c0.3,0,0.6,0.1,0.8,0.3c0.2,0.2,0.3,0.5,0.3,0.8
		c0,0.3-0.1,0.6-0.3,0.8c-0.2,0.2-0.5,0.3-0.8,0.3c-0.3,0-0.6-0.1-0.8-0.3C295.5,197.1,295.4,196.8,295.4,196.5z M295.8,199.5h1.6
		v8.4h-1.6V199.5z"/>
	<path class="st0" d="M304.4,200.9h-2.3v3.8c0,0.2,0,0.5,0,0.7c0,0.2,0.1,0.4,0.1,0.6c0.1,0.2,0.2,0.3,0.4,0.4
		c0.2,0.1,0.4,0.2,0.7,0.2c0.2,0,0.4,0,0.6-0.1c0.2,0,0.4-0.1,0.5-0.2v1.5c-0.2,0.1-0.4,0.2-0.7,0.2c-0.3,0-0.5,0.1-0.7,0.1
		c-0.6,0-1.1-0.1-1.4-0.3c-0.3-0.2-0.6-0.4-0.7-0.7c-0.2-0.3-0.3-0.6-0.3-0.9c0-0.3,0-0.7,0-1v-4.4h-1.8v-1.4h1.8v-2.4h1.6v2.4h2.3
		V200.9z"/>
	<path class="st0" d="M306.1,203.7c0-0.6,0.1-1.2,0.3-1.7c0.2-0.5,0.5-1,0.9-1.4c0.4-0.4,0.9-0.7,1.4-1c0.5-0.2,1.1-0.3,1.8-0.3
		c0.6,0,1.2,0.1,1.8,0.3c0.5,0.2,1,0.5,1.4,1c0.4,0.4,0.7,0.9,0.9,1.4c0.2,0.5,0.3,1.1,0.3,1.7s-0.1,1.2-0.3,1.7
		c-0.2,0.5-0.5,1-0.9,1.4c-0.4,0.4-0.9,0.7-1.4,0.9c-0.5,0.2-1.1,0.3-1.8,0.3c-0.6,0-1.2-0.1-1.8-0.3c-0.5-0.2-1-0.5-1.4-0.9
		c-0.4-0.4-0.7-0.9-0.9-1.4C306.2,204.9,306.1,204.3,306.1,203.7z M307.8,203.7c0,0.4,0.1,0.8,0.2,1.2c0.1,0.4,0.3,0.7,0.5,0.9
		c0.2,0.3,0.5,0.5,0.9,0.6c0.3,0.1,0.7,0.2,1.2,0.2c0.4,0,0.8-0.1,1.2-0.2c0.3-0.1,0.6-0.3,0.9-0.6c0.2-0.3,0.4-0.6,0.6-0.9
		c0.1-0.4,0.2-0.8,0.2-1.2c0-0.4-0.1-0.8-0.2-1.2c-0.1-0.4-0.3-0.7-0.6-0.9c-0.2-0.3-0.5-0.5-0.9-0.6c-0.3-0.1-0.7-0.2-1.2-0.2
		c-0.4,0-0.8,0.1-1.2,0.2c-0.3,0.1-0.6,0.3-0.9,0.6c-0.2,0.3-0.4,0.6-0.5,0.9C307.9,202.9,307.8,203.3,307.8,203.7z"/>
	<path class="st0" d="M317,199.5h1.6v1.3h0c0.1-0.2,0.2-0.4,0.4-0.6c0.2-0.2,0.4-0.3,0.6-0.5c0.2-0.1,0.5-0.2,0.7-0.3
		c0.3-0.1,0.5-0.1,0.8-0.1s0.5,0,0.7,0.1l-0.1,1.7c-0.1,0-0.3-0.1-0.4-0.1c-0.1,0-0.3,0-0.4,0c-0.8,0-1.4,0.2-1.8,0.7
		c-0.4,0.4-0.6,1.1-0.6,2v4.2H317V199.5z"/>
	<path class="st0" d="M322.6,199.5h1.8l2.5,6.6h0l2.4-6.6h1.7l-4,10.2c-0.1,0.4-0.3,0.7-0.4,1c-0.2,0.3-0.3,0.6-0.5,0.8
		c-0.2,0.2-0.5,0.4-0.8,0.5c-0.3,0.1-0.7,0.2-1.1,0.2c-0.2,0-0.5,0-0.7,0c-0.2,0-0.5-0.1-0.7-0.2l0.2-1.5c0.3,0.1,0.6,0.2,1,0.2
		c0.2,0,0.5,0,0.6-0.1c0.2-0.1,0.3-0.2,0.4-0.3c0.1-0.1,0.2-0.3,0.3-0.4c0.1-0.2,0.2-0.4,0.2-0.6l0.5-1.3L322.6,199.5z"/>
	<path class="st1" d="M77.5,86.2h53.1c1.3,0,2.4,1.1,2.4,2.4v8.6c0,1.3-1.1,2.4-2.4,2.4H91.2c-1.3,0-2.4,1.1-2.4,2.4v22
		c0,1.3,1.1,2.4,2.4,2.4h32.9c1.3,0,2.4,1.1,2.4,2.4v7.8c0,1.3-1.1,2.4-2.4,2.4H91.2c-1.3,0-2.4,1.1-2.4,2.4V164
		c0,1.3,1.1,2.4,2.4,2.4h39.4c1.3,0,2.4,1.1,2.4,2.4v8.6c0,1.3-1.1,2.4-2.4,2.4H77.5c-1.3,0-2.4-1.1-2.4-2.4V88.6
		C75.2,87.3,76.2,86.2,77.5,86.2"/>
	<path class="st1" d="M151,86.2h8c1.6,0,2.9,1.3,2.9,2.9v87.7c0,1.6-1.3,2.9-2.9,2.9h-8c-1.6,0-2.9-1.3-2.9-2.9V89.1
		C148.2,87.5,149.4,86.2,151,86.2"/>
	<path class="st1" d="M182,89.1c0-1.6,1.3-2.9,2.9-2.9h28.8c12.3,0.1,21.4,5.3,27.6,15.8c2.2,3.5,3.6,7.2,4.2,11
		c0.5,3.8,0.7,10.5,0.7,19.9c0,10-0.4,17-1.1,21c-0.3,2-0.8,3.8-1.5,5.4c-0.7,1.5-1.6,3.1-2.5,4.8c-2.7,4.4-6.3,8-11.1,10.9
		c-4.7,3.1-10.4,4.6-17.2,4.6h-27.8c-1.6,0-2.9-1.3-2.9-2.9V89.1z M195.7,163.4c0,1.6,1.3,2.9,2.9,2.9h13.5c7.7,0,13.3-2.7,16.8-8.2
		c1.5-2,2.5-4.6,2.9-7.6c0.4-3,0.6-8.7,0.6-17.1c0-8.1-0.2-14-0.6-17.5c-0.5-3.5-1.7-6.4-3.5-8.5c-3.8-5.4-9.2-8.1-16.2-7.9h-13.5
		c-1.6,0-2.9,1.3-2.9,2.9V163.4z"/>
	<path class="st1" d="M311.6,140.2c-0.5-1.1-0.1-2.4,1-2.9c10.2-4.8,15.3-13.1,15.5-25c-0.2-8.6-3.2-15.3-9-19.9
		c-4.8-4.1-10.9-6.2-18.5-6.2H269c-1.5,0-2.5,1.5-2,2.9c4.5,13.8,7,28.5,7,43.9s-2.5,30-7,43.9c-0.5,1.4,0.6,2.9,2,2.9h7.8
		c1.2,0,2.2-1,2.2-2.2v-35.6c0-1.2,1-2.2,2.2-2.2h14c0.8,0,1.6,0.5,2,1.3l17.6,37.4c0.4,0.8,1.1,1.2,2,1.2H328
		c1.6,0,2.7-1.7,1.9-3.1L311.6,140.2z M299.7,127.2h-18.6c-1.2,0-2.2-1-2.2-2.2v-24.1c0-1.2,1-2.2,2.2-2.2h19.4
		c4.4,0,7.8,1,10.1,2.9c2.9,2.2,4.5,5.7,4.5,10.6c0,4.1-1.3,7.5-3.8,10.3C308.7,125.5,304.9,127.1,299.7,127.2"/>
	<path d="M16.7,177.9c-5.6-14.3-8.5-29.7-8.5-45.2c0-17.8,3.9-36,12-53.2C30.8,57,47.3,39.2,67,27c19.7-12.2,42.5-18.8,65.8-18.8
		c17.8,0,36,3.9,53.2,12c11.1,5.3,21.1,12,29.9,19.8c1.7,1.5,4.3,1.4,5.8-0.3c1.5-1.7,1.4-4.3-0.3-5.8c-9.3-8.3-20-15.5-31.8-21.1
		C171.1,4.1,151.8,0,132.8,0c-24.9,0-49.2,7-70.1,20c-21,13-38.5,32-49.9,55.9C4.1,94.3,0,113.6,0,132.6c0,16.6,3.1,32.9,9.1,48.2
		c0.8,2.1,3.2,3.2,5.3,2.3C16.5,182.4,17.5,180,16.7,177.9L16.7,177.9z"/>
	<path d="M243.8,76.6c8.7,17.3,13.4,36.6,13.4,56.2c0,15.1-2.8,30.4-8.6,45.2c-0.8,2.1,0.2,4.5,2.3,5.3c2.1,0.8,4.5-0.2,5.3-2.3
		c6.2-15.8,9.1-32.1,9.1-48.2c0-20.9-5-41.4-14.3-59.9c-1-2-3.5-2.8-5.5-1.8C243.6,72.1,242.8,74.6,243.8,76.6L243.8,76.6z"/>
	<circle class="st2" cx="234" cy="55.3" r="15.4"/>
</g>
</svg>
