<?xml version="1.0" encoding="utf-8"?>
<!-- Generator: Adobe Illustrator 19.2.1, SVG Export Plug-In . SVG Version: 6.00 Build 0)  -->
<!DOCTYPE svg PUBLIC "-//W3C//DTD SVG 1.1//EN" "http://www.w3.org/Graphics/SVG/1.1/DTD/svg11.dtd">
<svg version="1.1" id="Layer_1" xmlns="http://www.w3.org/2000/svg" xmlns:xlink="http://www.w3.org/1999/xlink" x="0px" y="0px"
	 viewBox="0 0 743.4 160.6" style="enable-background:new 0 0 743.4 160.6;" xml:space="preserve">
<style type="text/css">
	.st0{fill:#0A4063;}
	.st1{fill:#DB4A4B;}
</style>
<path class="st0" d="M620.9,0c-1.6,0-3.1,1.6-3.1,3.3v33.5c0,1.8,1.6,3.1,3.1,3.1h36.8v110c0,1.6,1.6,3.1,3.3,3.1h39.3
	c1.8,0,3.1-1.6,3.1-3.1v-110h33.1c1.6,0,3.3-1.3,3.6-3.1l3.3-33.7c0.2-1.6-1.1-3.1-3.1-3.1H620.9z M536.6,63.4V39.9h13.1
	c7.5,0,12.6,4.7,12.6,11.8s-5.1,11.8-12.6,11.8H536.6z M582,92.5c16.6-7.1,27.3-24.8,27.3-42.4C609.3,20,586.7,0,552.5,0H494
	c-1.8,0-3.3,1.6-3.3,3.3V150c0,1.6,1.6,3.1,3.3,3.1h39c2,0,3.5-1.6,3.5-3.1v-48.8h2.7l23.1,48.4c0.9,2,2.9,3.5,5.1,3.5h47.5
	c2,0,3.5-1.6,2.4-3.5L582,92.5z M432.1,0c-1.6,0-3.1,1.6-3.1,3.3V150c0,1.6,1.6,3.1,3.1,3.1h39.3c2,0,3.3-1.6,3.3-3.1V3.3
	c0-1.8-1.3-3.3-3.3-3.3H432.1z M375.5,113.1V3.3c0-1.8-1.6-3.3-3.3-3.3h-39.3c-1.8,0-3.3,1.6-3.3,3.3V150c0,1.6,1.6,3.1,3.3,3.1H413
	c1.8,0,3.3-1.6,3.5-3.1l3.1-33.7c0-1.8-1.3-3.1-2.9-3.1H375.5z M218,0c-1.8,0-3.1,1.6-3.1,3.1v146.6c0,1.6,1.3,3.3,3.1,3.3h39.3
	c1.8,0,3.3-1.6,3.3-3.1v-53h40.6c2,0,3.5-1.6,3.8-2.9l3.1-31.1c0.2-1.3-0.9-2.9-2.9-2.9h-44.6V39.9h56.3c2,0,3.3-1.3,3.3-3.3V3.1
	c0-1.6-1.3-3.1-3.3-3.1H218z"/>
<path class="st1" d="M183.9,30.2c-4.3-5.8-12.6-6.5-17.7-1.8c-3.4,3.1-4.5,7.6-3.5,11.8c0.4,1.4-0.2,3-1.3,4l-13.5,12.4
	c-0.4,0.3-0.8,0.6-1.2,0.7c-0.9-0.8-1.8-1.6-2.7-2.4c-2.2-1.8-4.5-3.5-7-5l4-16.7c0.7-3.1-3.3-5-5.2-2.5l-10.4,13.7
	c-4.2-1.5-8.6-2.5-13.2-3c-0.4-0.7-0.7-1.5-0.6-2.4l0.8-17.7c0.1-1.5,0.9-2.9,2.3-3.6c4.2-2.1,7.1-6.6,6.7-11.8
	c-0.4-5.4-4.7-9.9-10-10.8c-7.2-1.1-13.5,4.3-13.8,11.3c-0.2,4.5,2.2,8.6,5.9,10.8c1.3,0.8,2,2.2,1.9,3.7l-0.8,17.7
	c0,0.9-0.4,1.7-0.9,2.4c-2.8,0.1-5.7,0.4-8.5,0.9c-1.3,0.2-2.6,0.5-3.9,0.8l-12.4-23c-0.8-1.4-2.9-0.6-2.6,0.9L81,46.4
	c-4.5,2-8.6,4.5-12.4,7.5c-0.8-0.2-1.6-0.6-2.3-1.3l-12-13c-1-1.1-1.4-2.7-0.9-4.2c1.5-4.5,0.4-9.7-3.6-13
	c-4.1-3.5-10.3-3.7-14.7-0.5c-5.8,4.3-6.5,12.6-1.8,17.7c3.1,3.4,7.6,4.5,11.8,3.5c1.4-0.4,3,0.2,4,1.3l12,13.1c0.6,0.7,1,1.5,1,2.3
	c-0.9,1-1.8,2-2.7,3c-1.7,2-3.2,4.1-4.6,6.4l-16.1-3.9c-3.1-0.7-5,3.3-2.5,5.2l13,9.9c-1.6,4.3-2.7,8.8-3.2,13.4
	c-0.6,0.3-1.3,0.5-2.1,0.5l-17.7-0.8c-1.5-0.1-2.9-0.9-3.6-2.3c-2.1-4.2-6.6-7.1-11.8-6.7C5.5,85,1,89.2,0.1,94.5
	c-1.1,7.2,4.3,13.5,11.3,13.8c4.5,0.2,8.6-2.2,10.8-5.9c0.8-1.3,2.2-2,3.7-1.9l17.7,0.8c0.7,0,1.4,0.3,2,0.6c0,3.2,0.3,6.4,0.9,9.7
	c0.2,1.3,0.5,2.6,0.8,3.9l-23,12.5c-1.2,0.7-0.6,2.5,0.8,2.3l25.6-4.8c1.8,3.9,3.9,7.6,6.4,11c-1.1,1.3-1.6,3-1.2,4.8
	c0.6,3.2,3.6,5.3,6.8,4.8c3.2-0.6,5.3-3.6,4.8-6.8c-0.6-3.2-3.6-5.3-6.8-4.8c-0.1,0-0.3,0.1-0.4,0.1c-5-6.8-8.6-14.7-10.1-23.6
	c-0.6-3.3-0.9-6.7-0.9-10c0-13.4,4.8-26,13-35.9c8.2-9.9,19.8-17,33.4-19.5c3.3-0.6,6.7-0.9,10-0.9c13.4,0,26,4.8,35.9,13
	c9.9,8.2,17,19.8,19.5,33.4c0.6,3.4,0.9,6.7,0.9,10c0,13.4-4.8,26.2-13,36.1c-8.2,9.9-19.8,17-33.4,19.2c-2.1,0.3-4,0.5-5.8,0.5
	c-3.3,0-6.2-0.5-8.6-1.4c-3.7-1.4-6.4-3.6-8.2-6.5c-1.8-2.9-2.8-6.4-2.8-10.4c0-5.1,1.6-10.9,5.1-16.8c3.5-5.9,8.8-11.8,16.2-17
	c1.3-0.9,3-1.9,5-2.8c2.9-1.4,6.3-2.8,9.3-4.6c1.5-0.9,3-1.9,4.3-3c1.3-1.1,2.5-2.4,3.3-3.9c0.1-0.1,0.1-0.2,0.1-0.3c0,0,0,0,0,0
	c0,0,0,0,0,0c0,0,0-0.1,0-0.1c0.3-0.9,0.5-1.8,0.5-2.8c0-2-0.8-2.9-2.8-2.9c-2.3,0-4.4,0.7-6,2.4c-2.9,3-5.9,5.9-8.7,8.9
	c-0.8,0.8-1.6,1.2-2.8,1.1c-12.3-0.3-24.6-0.5-36.9-0.9c-1.9-0.1-3.2,0.4-4.5,1.7c-1.4,1.5-1.4,1.9,0.5,2.6c9,3.2,17.9,6.3,26.9,9.5
	c0,0,0.1,0,0.1,0.1c-3.2,3.3-5.8,6.7-7.8,10.1c-3.8,6.4-5.7,12.8-5.7,18.7c0,3.1,0.5,6,1.5,8.6c1.5,4,4.2,7.4,7.9,9.7
	c3.7,2.3,8.4,3.6,13.9,3.6c2,0,4.1-0.2,6.4-0.5c14.6-2.3,27-9.9,35.7-20.5c8.7-10.6,13.8-24.1,13.8-38.4c0-3.5-0.3-7.1-0.9-10.7
	c-1.9-10.5-6.4-19.9-12.8-27.6c0.2-0.4,0.4-0.8,0.8-1.1c3.5-3.2,10.1-9.3,13.5-12.4c1.1-1,2.7-1.4,4.2-0.9c4.5,1.5,9.7,0.4,13-3.6
	C186.9,40.8,187.1,34.6,183.9,30.2z"/>
</svg>
