<svg xmlns="http://www.w3.org/2000/svg" viewBox="0 0 738.12 153.07"><defs><style>.a{fill:#0a4063;}.b{fill:#db4a4b;}</style></defs><title>flirt-logo</title><path class="a" d="M631.58,13.46a3.38,3.38,0,0,0-3.11,3.33v33.5a3.17,3.17,0,0,0,3.11,3.11H668.4v110a3.38,3.38,0,0,0,3.33,3.11H711a3.17,3.17,0,0,0,3.11-3.11V53.4h33.05a3.77,3.77,0,0,0,3.55-3.11L754,16.57a2.9,2.9,0,0,0-3.11-3.11Zm-84.3,63.45V53.4h13.09c7.54,0,12.65,4.66,12.65,11.76s-5.1,11.76-12.65,11.76ZM592.76,106C609.39,98.87,620,81.13,620,63.6c0-30.17-22.63-50.14-56.79-50.14H504.68a3.41,3.41,0,0,0-3.33,3.33V163.43a3.38,3.38,0,0,0,3.33,3.11h39a3.44,3.44,0,0,0,3.55-3.11V114.62h2.66L573,163a5.82,5.82,0,0,0,5.1,3.55h47.48c2,0,3.55-1.55,2.44-3.55Zm-150-92.51a3.38,3.38,0,0,0-3.11,3.33V163.43a3.34,3.34,0,0,0,3.11,3.11h39.27a3.22,3.22,0,0,0,3.33-3.11V16.79a3.27,3.27,0,0,0-3.33-3.33ZM386.22,126.6V16.79a3.41,3.41,0,0,0-3.33-3.33H343.63a3.41,3.41,0,0,0-3.33,3.33V163.43a3.38,3.38,0,0,0,3.33,3.11h80.09a3.79,3.79,0,0,0,3.55-3.11l3.11-33.72a3,3,0,0,0-2.88-3.11ZM228.71,13.46a3.17,3.17,0,0,0-3.11,3.11V163.21a3.37,3.37,0,0,0,3.11,3.33H268a3.38,3.38,0,0,0,3.33-3.11v-53h40.6a3.89,3.89,0,0,0,3.77-2.88l3.11-31.06a2.66,2.66,0,0,0-2.88-2.88H271.31V53.4h56.35A3.14,3.14,0,0,0,331,50.07V16.57a3.23,3.23,0,0,0-3.33-3.11Z" transform="translate(-15.94 -13.46)"/><path class="b" d="M186,45.93a11,11,0,0,0-19.63,9.24,3.78,3.78,0,0,1-1.16,3.69L152.65,70.36a3,3,0,0,1-1.13.65c-.82-.77-1.65-1.52-2.51-2.23a55.77,55.77,0,0,0-6.45-4.6l3.74-15.48a2.72,2.72,0,0,0-4.81-2.29l-9.64,12.68a55.12,55.12,0,0,0-12.2-2.76,3.78,3.78,0,0,1-.6-2.2l.7-16.38a3.87,3.87,0,0,1,2.14-3.32A11,11,0,1,0,111.44,34a3.78,3.78,0,0,1,1.79,3.43l-.71,16.41a3.78,3.78,0,0,1-.82,2.19,55.87,55.87,0,0,0-7.86.83c-1.21.22-2.39.48-3.57.77L88.76,36.41a1.31,1.31,0,0,0-2.43.86L90.8,60.9a55.12,55.12,0,0,0-11.48,6.95,3.79,3.79,0,0,1-2.09-1.16L66.17,54.63a3.87,3.87,0,0,1-.83-3.86,11,11,0,1,0-7.68,7.09A3.78,3.78,0,0,1,61.34,59L72.43,71.1a3.77,3.77,0,0,1,1,2.17c-.85.9-1.69,1.82-2.48,2.78a55.76,55.76,0,0,0-4.25,5.87L51.79,78.32a2.72,2.72,0,0,0-2.29,4.81l12,9.16a55.17,55.17,0,0,0-3,12.41,3.78,3.78,0,0,1-1.95.45l-16.38-.7a3.87,3.87,0,0,1-3.32-2.14,11,11,0,1,0-.42,10.45A3.78,3.78,0,0,1,39.92,111l16.41.7a3.77,3.77,0,0,1,1.83.57,55.77,55.77,0,0,0,.85,9c.22,1.23.48,2.45.78,3.65L38.54,136.37a1.13,1.13,0,0,0,.75,2.11L62.93,134a55.06,55.06,0,0,0,5.93,10.21,5.45,5.45,0,1,0,3.26-1.92l-.37.08a51.81,51.81,0,0,1-9.38-21.79A51.9,51.9,0,0,1,73.55,78.22a51.82,51.82,0,0,1,30.9-18,51.9,51.9,0,0,1,42.38,11.18,51.82,51.82,0,0,1,18,30.9,52.48,52.48,0,0,1-11.15,42.63,50.07,50.07,0,0,1-30.89,17.75,34.23,34.23,0,0,1-5.37.45,22.75,22.75,0,0,1-8-1.31,15.08,15.08,0,0,1-7.61-6,17.53,17.53,0,0,1-2.62-9.6A30.87,30.87,0,0,1,104,130.69a53.17,53.17,0,0,1,15-15.75,32.32,32.32,0,0,1,4.61-2.58c2.69-1.3,5.79-2.63,8.62-4.27a26.75,26.75,0,0,0,4-2.75,14.27,14.27,0,0,0,3.09-3.58,1.69,1.69,0,0,0,.12-.26h0v0l0-.08a7.93,7.93,0,0,0,.42-2.63c0-1.8-.72-2.64-2.55-2.66a7.38,7.38,0,0,0-5.59,2.22c-2.68,2.75-5.41,5.45-8.06,8.23a3.11,3.11,0,0,1-2.57,1.06c-11.37-.3-22.74-.49-34.11-.83a4.94,4.94,0,0,0-4.16,1.61c-1.27,1.37-1.25,1.78.49,2.4l24.87,8.75.13,0a50.89,50.89,0,0,0-7.23,9.34,34.25,34.25,0,0,0-5.23,17.3,22.25,22.25,0,0,0,1.41,8,18.12,18.12,0,0,0,7.32,9,23.81,23.81,0,0,0,12.87,3.36,37.65,37.65,0,0,0,5.91-.49,53.5,53.5,0,0,0,33-18.95,55.9,55.9,0,0,0,11.88-45.4,55.2,55.2,0,0,0-11.82-25.54,3.13,3.13,0,0,1,.74-1l12.46-11.43a3.87,3.87,0,0,1,3.86-.83A11,11,0,0,0,186,45.93Z" transform="translate(-15.94 -13.46)"/></svg>