<?xml version="1.0" encoding="utf-8"?>
<!-- Generator: Adobe Illustrator 19.2.1, SVG Export Plug-In . SVG Version: 6.00 Build 0)  -->
<!DOCTYPE svg PUBLIC "-//W3C//DTD SVG 1.1//EN" "http://www.w3.org/Graphics/SVG/1.1/DTD/svg11.dtd">
<svg version="1.1" id="Layer_1" xmlns="http://www.w3.org/2000/svg" xmlns:xlink="http://www.w3.org/1999/xlink" x="0px" y="0px"
	 viewBox="0 0 384.5 141.3" style="enable-background:new 0 0 384.5 141.3;" xml:space="preserve">
<style type="text/css">
	.st0{fill:none;}
	.st1{fill:#222944;}
</style>
<g>
	<path class="st0" d="M126.3,23.2c-0.9-1-2-1.7-3.2-2.3c-1.3-0.5-2.6-0.8-4.1-0.8c-1.5,0-2.9,0.3-4.2,0.8c-1.2,0.5-2.3,1.3-3.2,2.3
		c-0.9,1-1.6,2.1-2.1,3.4c-0.5,1.3-0.8,2.8-0.8,4.3s0.3,2.9,0.8,4.2c0.5,1.3,1.2,2.4,2.1,3.4c0.9,1,2,1.7,3.2,2.3
		c1.2,0.5,2.6,0.8,4.2,0.8c1.5,0,2.9-0.3,4.1-0.8c1.3-0.5,2.3-1.3,3.2-2.3c0.9-1,1.6-2.1,2.1-3.4c0.5-1.3,0.8-2.7,0.8-4.2
		s-0.3-3-0.8-4.3C127.9,25.3,127.2,24.1,126.3,23.2z"/>
	<path class="st0" d="M48.5,59.2c-1.9-2-4.2-3.6-6.9-4.7c-2.6-1.1-5.5-1.7-8.7-1.7s-6,0.6-8.7,1.7c-2.6,1.1-4.9,2.7-6.9,4.7
		c-2,2-3.5,4.4-4.6,7.2c-1.1,2.8-1.6,5.9-1.6,9.2c0,3.3,0.5,6.3,1.6,9.1c1.1,2.8,2.6,5.2,4.6,7.2c2,2,4.3,3.6,6.9,4.7
		c2.7,1.1,5.5,1.7,8.7,1.7s6-0.6,8.7-1.7c2.7-1.1,4.9-2.7,6.9-4.7c1.9-2,3.4-4.4,4.6-7.2c1.1-2.8,1.7-5.8,1.7-9.1
		c0-3.3-0.6-6.4-1.7-9.2C52,63.6,50.5,61.2,48.5,59.2z M40.6,64.8L36,83.9c-0.4,1.6-1.8,2.6-3.4,2.5c-0.7,0-1.4-0.1-2-0.5
		c-0.2-0.2-0.5-0.4-0.7-0.6l-7.1-8c-0.7-0.8-0.6-1.9,0.2-2.6c0.6-0.6,1.6-0.6,2.3-0.2l5.9,3.8l5.9-14.7c0.4-0.9,1.4-1.4,2.4-1
		C40.3,63,40.8,63.9,40.6,64.8z"/>
	<path class="st0" d="M209.5,23.5c-0.9-1-2-1.8-3.4-2.4c-1.3-0.6-2.8-0.9-4.3-0.9c-1.6,0-3.1,0.3-4.4,0.9c-1.3,0.6-2.4,1.4-3.4,2.4
		c-0.9,1-1.7,2.2-2.2,3.6c-0.5,1.4-0.8,2.9-0.8,4.5c0,1.6,0.3,3.1,0.8,4.5c0.5,1.4,1.2,2.5,2.2,3.5c0.9,1,2.1,1.8,3.4,2.4
		c1.3,0.6,2.7,0.9,4.4,0.9c1.6,0,3-0.3,4.3-0.8c1.3-0.6,2.4-1.3,3.4-2.3c0.9-1,1.7-2.1,2.2-3.5c0.5-1.4,0.8-2.9,0.8-4.6
		c0-1.6-0.3-3-0.8-4.4C211.1,25.7,210.4,24.5,209.5,23.5z"/>
	<path class="st0" d="M167.3,23.2c-0.9-1-2-1.7-3.2-2.3c-1.3-0.5-2.6-0.8-4.1-0.8c-1.5,0-2.9,0.3-4.2,0.8c-1.2,0.5-2.3,1.3-3.2,2.3
		c-0.9,1-1.6,2.1-2.1,3.4c-0.5,1.3-0.8,2.8-0.8,4.3s0.3,2.9,0.8,4.2c0.5,1.3,1.2,2.4,2.1,3.4c0.9,1,2,1.7,3.2,2.3
		c1.2,0.5,2.6,0.8,4.2,0.8c1.5,0,2.9-0.3,4.1-0.8c1.3-0.5,2.3-1.3,3.2-2.3c0.9-1,1.6-2.1,2.1-3.4c0.5-1.3,0.8-2.7,0.8-4.2
		s-0.3-3-0.8-4.3C168.9,25.3,168.2,24.1,167.3,23.2z"/>
	<path class="st0" d="M158,69.4c-1.8-1.1-4.1-1.7-6.8-1.7c-2.2,0-4.1,0.4-5.8,1.2c-1.7,0.8-3.1,1.8-4.2,3.1c-1.1,1.3-2,2.8-2.6,4.4
		c-0.6,1.7-1,3.4-1,5.1c1.4,0.1,2.7,0.1,3.9,0.1c1.3,0,2.5,0,3.8,0c3.3,0,5.9-0.2,8-0.6c2-0.4,3.6-1,4.7-1.6
		c1.1-0.7,1.9-1.4,2.2-2.2c0.4-0.8,0.5-1.7,0.5-2.6C160.8,72.2,159.9,70.5,158,69.4z"/>
	<path class="st0" d="M317.8,72.9c-1.2-1.3-2.7-2.3-4.4-3.1c-1.7-0.7-3.6-1.1-5.6-1.1c-2.1,0-4,0.4-5.7,1.1
		c-1.7,0.7-3.2,1.8-4.4,3.1c-1.2,1.3-2.2,2.9-2.9,4.7c-0.7,1.8-1,3.8-1,5.9s0.3,4,1,5.8c0.7,1.8,1.6,3.3,2.9,4.7
		c1.2,1.3,2.7,2.4,4.4,3.1c1.7,0.7,3.6,1.1,5.7,1.1c2,0,3.9-0.4,5.6-1.1c1.7-0.7,3.2-1.8,4.4-3.1c1.2-1.3,2.2-2.9,2.9-4.7
		c0.7-1.8,1-3.7,1-5.8s-0.3-4-1-5.9C319.9,75.8,319,74.2,317.8,72.9z"/>
	<path class="st1" d="M131.7,18.5c-1.6-1.6-3.5-2.8-5.7-3.6c-2.2-0.9-4.6-1.3-7.1-1.3c-2.5,0-4.9,0.4-7.1,1.3
		c-2.2,0.9-4.1,2.1-5.7,3.6c-1.6,1.6-2.9,3.4-3.8,5.5c-0.9,2.1-1.4,4.4-1.4,6.9c0,2.4,0.5,4.7,1.4,6.8c0.9,2.1,2.2,4,3.8,5.5
		c1.6,1.6,3.5,2.8,5.7,3.7c2.2,0.9,4.6,1.3,7.1,1.3c2.5,0,4.9-0.4,7.1-1.3c2.2-0.9,4.1-2.1,5.7-3.7c1.6-1.5,2.9-3.4,3.8-5.5
		c0.9-2.1,1.4-4.4,1.4-6.8c0-2.5-0.5-4.8-1.4-6.9C134.6,21.9,133.4,20,131.7,18.5z M128.4,35.1c-0.5,1.3-1.2,2.4-2.1,3.4
		c-0.9,1-2,1.7-3.2,2.3c-1.3,0.5-2.6,0.8-4.1,0.8c-1.5,0-2.9-0.3-4.2-0.8c-1.2-0.5-2.3-1.3-3.2-2.3c-0.9-1-1.6-2.1-2.1-3.4
		c-0.5-1.3-0.8-2.7-0.8-4.2s0.3-3,0.8-4.3c0.5-1.3,1.2-2.5,2.1-3.4c0.9-1,2-1.7,3.2-2.3c1.2-0.5,2.6-0.8,4.2-0.8
		c1.5,0,2.9,0.3,4.1,0.8c1.3,0.5,2.3,1.3,3.2,2.3c0.9,1,1.6,2.1,2.1,3.4c0.5,1.3,0.8,2.8,0.8,4.3S128.9,33.8,128.4,35.1z"/>
	<path class="st1" d="M172.8,18.5c-1.6-1.6-3.5-2.8-5.7-3.6c-2.2-0.9-4.6-1.3-7.1-1.3c-2.5,0-4.9,0.4-7.1,1.3
		c-2.2,0.9-4.1,2.1-5.7,3.6c-1.6,1.6-2.9,3.4-3.8,5.5c-0.9,2.1-1.4,4.4-1.4,6.9c0,2.4,0.5,4.7,1.4,6.8c0.9,2.1,2.2,4,3.8,5.5
		c1.6,1.6,3.5,2.8,5.7,3.7c2.2,0.9,4.6,1.3,7.1,1.3c2.5,0,4.9-0.4,7.1-1.3c2.2-0.9,4.1-2.1,5.7-3.7c1.6-1.5,2.9-3.4,3.8-5.5
		c0.9-2.1,1.4-4.4,1.4-6.8c0-2.5-0.5-4.8-1.4-6.9C175.6,21.9,174.4,20,172.8,18.5z M169.4,35.1c-0.5,1.3-1.2,2.4-2.1,3.4
		c-0.9,1-2,1.7-3.2,2.3c-1.3,0.5-2.6,0.8-4.1,0.8c-1.5,0-2.9-0.3-4.2-0.8c-1.2-0.5-2.3-1.3-3.2-2.3c-0.9-1-1.6-2.1-2.1-3.4
		c-0.5-1.3-0.8-2.7-0.8-4.2s0.3-3,0.8-4.3c0.5-1.3,1.2-2.5,2.1-3.4c0.9-1,2-1.7,3.2-2.3c1.2-0.5,2.6-0.8,4.2-0.8
		c1.5,0,2.9,0.3,4.1,0.8c1.3,0.5,2.3,1.3,3.2,2.3c0.9,1,1.6,2.1,2.1,3.4c0.5,1.3,0.8,2.8,0.8,4.3S169.9,33.8,169.4,35.1z"/>
	<path class="st1" d="M268.9,41.3c-1.7,0-3.2,0.6-4.4,1.8c-1.2,1.2-1.8,2.7-1.8,4.4c0,1.7,0.6,3.2,1.8,4.4c1.2,1.2,2.7,1.8,4.4,1.8
		c1.7,0,3.2-0.6,4.4-1.8c1.2-1.2,1.8-2.7,1.8-4.4c0-1.7-0.6-3.2-1.8-4.4C272.1,41.9,270.6,41.3,268.9,41.3z"/>
	<path class="st1" d="M272.1,61h-6.3c-1.1,0-1.9,0.9-1.9,1.9v41c0,1.1,0.9,1.9,1.9,1.9h6.3c1.1,0,1.9-0.9,1.9-1.9v-41
		C274,61.9,273.1,61,272.1,61z"/>
	<path class="st1" d="M214.8,83.3c-2.7-2.1-6.6-3.4-11.5-4.1l-9.1-1.2c-2.6-0.3-4.5-0.9-5.8-1.8c-1.2-0.8-1.8-2.2-1.8-3.5
		c0.1-3.5,3.5-5.3,10.4-5.3c2.5,0,4.7,0.2,6.6,0.6c1.9,0.4,3.5,0.8,4.9,1.3c1.4,0.5,2.5,1,3.3,1.5c0.8,0.5,1.5,1.2,2.1,1
		c0.6-0.2,1-1,1.3-1.4c0.3-0.4,2.1-3.2,2.3-3.9c0.4-1.6-2.7-3.4-6.1-4.7c-3.4-1.4-8.2-2.1-14.4-2.1c-3.7,0-6.8,0.4-9.4,1.1
		c-2.6,0.7-4.7,1.8-6.3,3.1c-1.6,1.3-2.8,2.8-3.5,4.5c-0.7,1.7-1.1,3.5-1.1,5.4c0,2.2,0.4,4.1,1.2,5.7c0.8,1.6,1.9,2.9,3.4,4
		c1.4,1.1,3.1,1.9,5.1,2.5c2,0.6,4.2,1.1,6.6,1.3l7,0.8c3.2,0.4,5.5,1,6.7,1.8c1.3,0.9,1.9,2.1,1.9,3.8c0,2-1,3.4-3,4.2
		c-2,0.8-4.5,1.2-7.6,1.2c-2.4,0-4.6-0.2-6.6-0.5c-2-0.4-3.8-0.8-5.4-1.3c-1.6-0.5-2.9-1-4-1.5c-0.3-0.1-0.6-0.2-0.8-0.4
		c-0.8-0.4-1.8-0.1-2.3,0.7l-2.2,3.9c-0.5,0.9-0.2,1.9,0.7,2.4c0.2,0.1,0.5,0.3,0.8,0.4c1.2,0.6,2.8,1.2,4.7,1.8
		c1.9,0.6,4.2,1.2,6.8,1.7c2.6,0.5,5.5,0.7,8.8,0.7c6.7,0,11.8-1.3,15.3-4c3.5-2.7,5.3-6.3,5.3-10.7
		C218.9,88.4,217.5,85.4,214.8,83.3z"/>
	<path class="st1" d="M325.2,66.5c-2.2-2.1-4.8-3.8-7.8-5c-3-1.2-6.2-1.8-9.7-1.8c-3.5,0-6.7,0.6-9.7,1.8c-3,1.2-5.6,2.8-7.8,5
		c-2.2,2.1-3.9,4.6-5.2,7.5c-1.3,2.9-1.9,6-1.9,9.4c0,3.3,0.6,6.5,1.9,9.3c1.3,2.9,3,5.4,5.2,7.5c2.2,2.1,4.8,3.8,7.8,5
		c3,1.2,6.2,1.8,9.7,1.8c3.5,0,6.7-0.6,9.7-1.8c3-1.2,5.6-2.9,7.8-5c2.2-2.1,3.9-4.6,5.2-7.5c1.3-2.9,1.9-6,1.9-9.3
		c0-3.4-0.6-6.5-1.9-9.4C329.2,71.2,327.4,68.7,325.2,66.5z M320.6,89.3c-0.7,1.8-1.6,3.3-2.9,4.7c-1.2,1.3-2.7,2.4-4.4,3.1
		c-1.7,0.7-3.6,1.1-5.6,1.1c-2.1,0-4-0.4-5.7-1.1c-1.7-0.7-3.2-1.8-4.4-3.1c-1.2-1.3-2.2-2.9-2.9-4.7c-0.7-1.8-1-3.7-1-5.8
		s0.3-4,1-5.9c0.7-1.8,1.6-3.4,2.9-4.7c1.2-1.3,2.7-2.3,4.4-3.1c1.7-0.7,3.6-1.1,5.7-1.1c2,0,3.9,0.4,5.6,1.1
		c1.7,0.7,3.2,1.8,4.4,3.1c1.2,1.3,2.2,2.9,2.9,4.7c0.7,1.8,1,3.8,1,5.9S321.3,87.5,320.6,89.3z"/>
	<path class="st1" d="M382.9,70.8c-1.1-2.4-2.6-4.4-4.5-6c-1.9-1.6-4.2-2.9-6.9-3.8c-2.7-0.9-5.6-1.3-8.8-1.3
		c-3.2,0-6.1,0.4-8.7,1.3c-2.7,0.9-4.9,2.1-6.9,3.8c-1.9,1.6-3.5,3.6-4.6,6c-1.1,2.4-1.7,5-1.7,8v25.1c0,1.1,0.9,2,2,2h6.2
		c1.1,0,2-0.9,2-2V81.4c0-4.1,1-7.1,2.9-9.3c1.9-2.1,4.8-3.2,8.7-3.2c3.8,0,6.7,1.1,8.7,3.2c2,2.1,3,5.2,3,9.3v22.5c0,1.1,0.9,2,2,2
		h6.2c1.1,0,2-0.9,2-2V78.8C384.5,75.9,384,73.2,382.9,70.8z"/>
	<path class="st1" d="M116.5,59.8h-6.2c-1.1,0-2,0.9-2,2v22.5c0,4.1-1,7.1-2.9,9.3c-1.9,2.1-4.8,3.2-8.7,3.2c-3.8,0-6.7-1.1-8.7-3.2
		c-2-2.1-3-5.2-3-9.3V72.4V61.8c0-1.1-0.9-2-2-2h-6.2c-1.1,0-2,0.9-2,2v10.6v14.5c0,3,0.5,5.6,1.6,8c1.1,2.4,2.6,4.4,4.5,6
		c1.9,1.6,4.2,2.9,6.9,3.8c2.7,0.9,5.6,1.3,8.8,1.3c3.2,0,6.1-0.4,8.7-1.3c2.7-0.9,4.9-2.1,6.9-3.8c1.9-1.6,3.5-3.6,4.6-6
		c1.1-2.4,1.7-5,1.7-8V61.8C118.6,60.7,117.7,59.8,116.5,59.8z"/>
	<path class="st1" d="M255,97.5c-0.5-0.9-1.6-1.2-2.6-0.8c-0.5,0.2-1,0.4-1.6,0.7c-1.5,0.5-3.1,0.8-4.8,0.8c-1.1,0-2.1-0.1-3.1-0.4
		c-1-0.2-1.8-0.7-2.6-1.3c-0.7-0.6-1.3-1.4-1.7-2.4c-0.4-1-0.6-2.3-0.6-3.8V70.4h16.6c1.1,0,2-0.9,2-2V63c0-1.1-0.9-2-2-2h-16.6
		V50.3c0-1.1-0.9-2-2-2h-6.2c-1.1,0-2,0.9-2,2v42.1c0,4.4,1.3,8,4,10.7c2.7,2.7,6.6,4.1,11.9,4.1c1.8,0,3.5-0.2,5.1-0.5
		c1.6-0.3,3-0.7,4.2-1.2c1.3-0.5,2.3-1,3.2-1.5l0.4-0.2c0.9-0.6,1.2-1.8,0.6-2.7L255,97.5z"/>
	<path class="st1" d="M165.7,64.2c-1.6-1.3-3.7-2.4-6-3.2c-2.4-0.8-5.1-1.2-8.2-1.2c-3.5,0-6.8,0.6-9.7,1.7c-3,1.2-5.5,2.8-7.7,4.9
		c-2.2,2.1-3.9,4.7-5.1,7.6c-1.2,3-1.8,6.2-1.8,9.8c0,3.8,0.6,7.1,1.9,10c1.3,2.9,3,5.3,5.1,7.3c2.2,2,4.7,3.5,7.6,4.5
		c2.9,1,6,1.5,9.3,1.5c2.4,0,4.6-0.2,6.6-0.5c2-0.4,3.8-0.8,5.3-1.3c0.6-0.2,1.2-0.4,1.7-0.6c0.8-0.3,1.5-0.6,2.1-0.9
		c0.4-0.2,0.8-0.5,1.2-0.6c0.6-0.3,0.8-1.1,0.5-1.7l-2.6-5l0,0c-0.3-0.6-1-0.8-1.6-0.5l-0.6,0.3c-0.7,0.4-1.6,0.7-2.7,1.1
		c-1,0.4-2.2,0.7-3.5,0.9c-1.3,0.2-2.7,0.4-4.3,0.4c-4.6,0-8.1-0.9-10.6-2.8c-2.5-1.9-3.9-4.3-4.4-7.4c1.2,0.1,2.3,0.1,3.4,0.1
		c1,0,2.2,0,3.4,0c5.1,0,9.4-0.3,12.7-1c3.3-0.7,6-1.6,8-2.9c2-1.2,3.3-2.7,4.1-4.4c0.8-1.7,1.2-3.6,1.2-5.7c0-2-0.4-3.9-1.3-5.7
		C168.6,67.1,167.4,65.6,165.7,64.2z M160.2,77c-0.4,0.8-1.1,1.6-2.2,2.2c-1.1,0.7-2.7,1.2-4.7,1.6c-2,0.4-4.7,0.6-8,0.6
		c-1.3,0-2.5,0-3.8,0c-1.3,0-2.6,0-3.9-0.1c0.1-1.7,0.4-3.4,1-5.1c0.6-1.7,1.5-3.1,2.6-4.4c1.1-1.3,2.5-2.3,4.2-3.1
		c1.7-0.8,3.6-1.2,5.8-1.2c2.7,0,4.9,0.6,6.8,1.7c1.8,1.1,2.7,2.8,2.7,5.1C160.8,75.3,160.6,76.2,160.2,77z"/>
	<path class="st1" d="M95.1,4.4c0,0-2.8-1.7-3.2-1.9c-0.2-0.1-0.4-0.2-0.7-0.3c-0.8-0.3-1.7-0.7-2.8-1c-1.1-0.3-2.4-0.6-3.8-0.8
		C83.2,0.1,81.6,0,79.8,0c-2.3,0-4.5,0.3-6.6,0.7C72.1,1,71,1.3,69.9,1.6c-3,1.1-5.7,2.7-7.9,4.7c-2.2,2.1-4,4.5-5.2,7.5
		c-1.3,2.9-1.9,6.2-1.9,9.9c0,3.9,0.6,7.3,1.9,10.3c1.3,2.9,3.1,5.4,5.4,7.4c2.3,2,5,3.4,8.2,4.5c3.2,1,6.7,1.5,10.5,1.5
		c1.7,0,3.3,0,4.9-0.1c1.6-0.1,3-0.2,4.3-0.3c1.3-0.1,2.4-0.3,3.3-0.4l0.1,0c1-0.1,1.8-1,1.8-2v-19c0-3-1.6-4.5-4.7-4.5H78.4
		c-0.8,0-1.6,0.5-1.9,1.3c-0.2,0.7-0.4,1.4-0.4,2.3c0,2.3,1.3,3.4,3.9,3.4h5.6c1.1,0,2,0.9,2,2v8.1c0,1.1-0.8,1.9-1.9,2
		c-0.1,0-0.2,0-0.4,0c-1.2,0.1-2.6,0.1-4.2,0.1c-2.7,0-5.2-0.3-7.4-1c-2.2-0.7-4.1-1.6-5.7-3c-1.6-1.3-2.9-3-3.7-5.1
		c-0.9-2.1-1.3-4.6-1.3-7.5c0-2.6,0.4-4.9,1.2-7c0.8-2.1,2-3.8,3.4-5.3C69.2,10,71,8.9,73,8.2S77.2,7,79.7,7c1.6,0,3,0.1,4.3,0.4
		l0.1,0c1.7,0.4,3.4,1.1,4.9,2l2.2,1.3c0.1,0.1,0.3,0.1,0.5,0.2c0.6,0.1,1.2-0.1,1.6-0.7l2-3.3l0.3-0.6C96,5.7,95.8,4.8,95.1,4.4z"
		/>
	<path class="st1" d="M218.7,3.1H214c-0.8,0-1.5,0.6-1.5,1.4l0,14c-1.2-1.5-2.7-2.7-4.8-3.8c-2-1-4.4-1.6-7.1-1.6
		c-2.5,0-4.9,0.5-7,1.3c-2.1,0.9-4,2.2-5.6,3.8c-1.6,1.6-2.8,3.6-3.7,5.8c-0.9,2.2-1.3,4.7-1.3,7.4c0,2.6,0.5,5.1,1.4,7.3
		c0.9,2.3,2.2,4.2,3.9,5.8c1.7,1.6,3.6,2.9,5.9,3.8c2.3,0.9,4.8,1.4,7.5,1.4c2.7,0,5.1-0.4,7.4-1.2c2.3-0.8,4.2-2.1,5.9-3.7
		c1.7-1.7,3-3.7,3.9-6.2c0.9-2.5,1.4-5.4,1.4-8.8V4.6C220.3,3.8,219.6,3.1,218.7,3.1z M211.7,36.1c-0.5,1.4-1.3,2.6-2.2,3.5
		c-0.9,1-2,1.7-3.4,2.3c-1.3,0.6-2.8,0.8-4.3,0.8c-1.6,0-3.1-0.3-4.4-0.9c-1.3-0.6-2.4-1.4-3.4-2.4c-0.9-1-1.7-2.2-2.2-3.5
		c-0.5-1.4-0.8-2.9-0.8-4.5c0-1.6,0.3-3.1,0.8-4.5c0.5-1.4,1.2-2.6,2.2-3.6c0.9-1,2.1-1.8,3.4-2.4c1.3-0.6,2.7-0.9,4.4-0.9
		c1.6,0,3,0.3,4.3,0.9c1.3,0.6,2.4,1.4,3.4,2.4c0.9,1,1.7,2.2,2.2,3.6c0.5,1.4,0.8,2.9,0.8,4.4C212.5,33.2,212.2,34.7,211.7,36.1z"
		/>
	<path class="st1" d="M39.5,62.7c-0.9-0.4-2,0.1-2.4,1l-5.9,14.7l-5.9-3.8c-0.7-0.4-1.6-0.4-2.3,0.2c-0.8,0.7-0.8,1.9-0.2,2.6l7.1,8
		c0.2,0.2,0.4,0.4,0.7,0.6c0.6,0.4,1.3,0.6,2,0.5c1.6,0.1,3-0.9,3.4-2.5l4.6-19.1C40.8,63.9,40.3,63,39.5,62.7z"/>
	<path class="st1" d="M56.5,52.4c-3-2.9-6.5-5.2-10.5-6.9c-4-1.7-8.3-2.5-13-2.5c-4.7,0-9,0.8-13,2.5c-4,1.7-7.5,3.9-10.5,6.9
		c-3,2.9-5.3,6.4-7,10.3C0.8,66.7,0,71,0,75.6c0,4.6,0.8,8.9,2.5,12.9c1.7,4,4,7.4,7,10.3c2.5,2.4,5.3,4.4,8.4,5.9
		c0.7,0.3,1.3,0.7,2,0.9c4,1.6,8.3,2.5,13,2.5l0,0c4.7,0,9-0.8,13-2.5c3.2-1.3,6.1-3.1,8.7-5.3c0.6-0.5,1.2-1,1.8-1.6
		c2.1-2.1,3.8-4.4,5.3-6.9c0.6-1.1,1.2-2.2,1.7-3.4c1.7-4,2.5-8.3,2.5-12.9c0-4.6-0.8-8.9-2.5-12.9S59.5,55.3,56.5,52.4z M53.1,84.7
		c-1.1,2.8-2.6,5.2-4.6,7.2c-1.9,2-4.2,3.6-6.9,4.7c-2.6,1.1-5.5,1.7-8.7,1.7s-6-0.6-8.7-1.7c-2.6-1.1-4.9-2.7-6.9-4.7
		c-2-2-3.5-4.4-4.6-7.2c-1.1-2.8-1.6-5.8-1.6-9.1c0-3.3,0.5-6.4,1.6-9.2c1.1-2.8,2.6-5.2,4.6-7.2c2-2,4.3-3.6,6.9-4.7
		c2.7-1.1,5.5-1.7,8.7-1.7s6,0.6,8.7,1.7c2.7,1.1,4.9,2.7,6.9,4.7c1.9,2,3.4,4.4,4.6,7.2c1.1,2.8,1.7,5.9,1.7,9.2
		C54.8,78.9,54.2,81.9,53.1,84.7z"/>
	<path class="st1" d="M61.8,99.8c-0.4-0.1-0.8,0.1-1.1,0.4c-0.8,1-1.6,1.9-2.4,2.7c-0.6,0.6-1.2,1.1-1.8,1.6c-2.5,2.2-5.4,4-8.6,5.3
		c-4,1.7-8.3,2.5-13,2.6l0,0c-3.3,0-6.5-0.4-9.4-1.2l-0.3-0.1c-1.2-0.3-2,1.1-1.2,1.9l28.4,27.1l0.3,0.3c1.8,1.7,4.7,0.7,5-1.8
		l5.2-37.6C62.9,100.3,62.4,99.8,61.8,99.8z"/>
</g>
</svg>
