<?xml version="1.0" encoding="utf-8"?>
<!-- Generator: Adobe Illustrator 19.2.1, SVG Export Plug-In . SVG Version: 6.00 Build 0)  -->
<!DOCTYPE svg PUBLIC "-//W3C//DTD SVG 1.1//EN" "http://www.w3.org/Graphics/SVG/1.1/DTD/svg11.dtd">
<svg version="1.1" id="Layer_1" xmlns="http://www.w3.org/2000/svg" xmlns:xlink="http://www.w3.org/1999/xlink" x="0px" y="0px"
	 viewBox="0 0 944.2 139.1" style="enable-background:new 0 0 944.2 139.1;" xml:space="preserve">
<style type="text/css">
	.st0{fill:#333333;}
	.st1{fill:#F89951;}
	.st2{fill:#54B94A;}
	.st3{fill:#2C9CA0;}
	.st4{fill:#EF3B39;}
	.st5{fill:none;}
</style>
<g>
	<rect x="514.8" y="80.4" class="st0" width="280.3" height="17.2"/>
	<path class="st0" d="M939.8,80.4h-13.3v17.2h13.3c2.4,0,4.4-2,4.4-4.4v-8.3C944.2,82.4,942.3,80.4,939.8,80.4z"/>
	<path class="st1" d="M923,79.6c0-1.3-1-2.3-2.3-2.3H800.8c-1.3,0-2.3,1-2.3,2.3v18.6c0,1.3,1,2.3,2.3,2.3h119.9
		c1.3,0,2.3-1,2.3-2.3V79.6z"/>
	<rect x="514.8" y="41.7" class="st0" width="54.5" height="17.2"/>
	<path class="st0" d="M927.2,58.9c2.4,0,4.4-2,4.4-4.4v-8.3c0-2.4-2-4.4-4.4-4.4H694v17.2H927.2z"/>
	<path class="st2" d="M572.7,59.5c0,1.3,1,2.3,2.3,2.3h113.2c1.3,0,2.3-1,2.3-2.3V41.1c0-1.3-1-2.3-2.3-2.3H575.1
		c-1.3,0-2.3,1-2.3,2.3V59.5z"/>
	<path class="st0" d="M911.8,20.2c2.4,0,4.4-2,4.4-4.4V7.5c0-2.4-2-4.4-4.4-4.4h-47.6v17.2H911.8z"/>
	<rect x="514.8" y="3.1" class="st0" width="292.9" height="17.2"/>
	<path class="st3" d="M811.1,21c0,1.3,1,2.3,2.3,2.3h45c1.3,0,2.3-1,2.3-2.3V2.3c0-1.3-1-2.3-2.3-2.3h-45c-1.3,0-2.3,1-2.3,2.3V21z"
		/>
	<path class="st0" d="M877.5,119H757.6v17.2h119.9c2.4,0,4.4-2,4.4-4.4v-8.3C882,121,880,119,877.5,119z"/>
	<rect x="514.8" y="119" class="st0" width="124.3" height="17.2"/>
	<path class="st3" d="M754.2,118.4c0-1.3-1-2.3-2.3-2.3h-107c-1.3,0-2.3,1-2.3,2.3v18.4c0,1.3,1,2.3,2.3,2.3h107
		c1.3,0,2.3-1,2.3-2.3V118.4z"/>
	<g>
		<path class="st4" d="M115.7,64.6h-60c-0.9,0-1.7,0.8-1.7,1.7v16.2c0,0.9,0.7,1.6,1.6,1.6h39.9c0.4,0,0.7,0.3,0.7,0.7l0,19.9
			c0,0.2-0.1,0.4-0.2,0.5c-6,5.5-17,11.4-29.8,11.4c-25.8,0-44.4-19.9-44.4-47.2c0-27.3,18.7-47,44.4-47c13.1,0,25.6,5.9,33.3,15.8
			l0.8,1c0.3,0.4,0.7,0.6,1.2,0.6c0.3,0,0.5-0.1,0.8-0.2l14.6-9.1c0.8-0.5,1-1.6,0.4-2.3l-1-1.2c-12.9-16-29.8-24.1-50-24.1
			c-36.7,0-63.8,25.7-66,61.7C0.1,66.2,0,67.8,0,69.4c0,5.1,0.5,10.1,1.4,14.8c6.1,30.8,31.5,52,64.7,52c19.7,0,37.6-7.9,50.5-22.2
			l0.8-0.8V66.4C117.4,65.4,116.7,64.6,115.7,64.6z"/>
		<g>
			<path class="st5" d="M209.3,44.9c0-12.7-9-21.2-22.3-21.2h-30.1v42.6H187C200.3,66.3,209.3,57.7,209.3,44.9z"/>
			<path class="st4" d="M232.3,132.4l-33.1-50c15.6-2.8,30.3-15,30.3-37.5c0-23.5-16.4-39.3-40.7-39.3h-50.5c-0.6,0-1.1,0.5-1.1,1.1
				V132c0,0.6,0.5,1.1,1.1,1.1h17.8c0.5,0,0.8-0.4,0.8-0.8v-48H178l30.5,47.5c0.5,0.8,1.4,1.3,2.4,1.3h21
				C232.3,133,232.5,132.7,232.3,132.4z M156.9,24.6c0-0.5,0.4-1,1-1H187c13.3,0,22.3,8.5,22.3,21.2c0,12.8-9,21.4-22.3,21.4h-29.1
				c-0.5,0-0.9-0.4-0.9-0.9V24.6z"/>
		</g>
		<path class="st4" d="M267.7,5.6h-17c-0.7,0-1.3,0.6-1.3,1.3v124.7c0,0.7,0.6,1.3,1.3,1.3h17c0.7,0,1.3-0.6,1.3-1.3V7
			C269,6.2,268.4,5.6,267.7,5.6z"/>
		<path class="st4" d="M381.8,5.6h-95.6c-0.7,0-1.3,0.6-1.3,1.3v15.6c0,0.6,0.5,1.1,1.1,1.1h37.8v108.2c0,0.6,0.5,1.1,1.1,1.1h17.3
			c0.7,0,1.3-0.6,1.3-1.3v-108h38.2c0.5,0,0.9-0.4,0.9-0.9V6.4C382.6,6,382.3,5.6,381.8,5.6z"/>
		<path class="st4" d="M442.8,57.2c-15-4.1-27.9-7.6-27.9-18c0-10.2,9.5-17.3,23.1-17.3c13.7,0,26.6,4.7,34,14
			c0.3,0.3,1,0.7,1.6,0.7c0,0,0,0,0,0c0.6,0,1.3-0.4,1.6-0.7c2.7-2.4,7.1-8.3,9.2-11.3c0.2-0.3,0.6-1.1,0.6-1.6
			c0-0.5-0.7-1.4-0.7-1.4C473.1,9.8,457.8,3.8,439,3.8c-25.7,0-44.4,15.3-44.4,36.3c0,25.4,22.6,31.5,42.5,36.9
			c16.3,4.4,30.4,8.3,30.4,21.1c0,9.2-7,19-26.7,19c-19.1,0-30.8-10.8-36.8-16.8c-0.3-0.3-1-1.1-1.8-1.2c0,0-0.1,0-0.1,0
			c-0.6,0-1.2,0.5-1.7,1.1c-2.2,2.9-5.9,7.7-9,11.5c-0.3,0.3-0.9,1.2-0.9,1.6c0,0.6,0.7,1.3,1,1.6c9.7,7.7,23.1,20.1,48.6,20.1
			c35.1,0,47.6-19.8,47.6-38.3C487.7,69.4,462.8,62.6,442.8,57.2z"/>
	</g>
</g>
</svg>
