<?xml version="1.0" encoding="utf-8"?>
<!-- Generator: Adobe Illustrator 19.2.1, SVG Export Plug-In . SVG Version: 6.00 Build 0)  -->
<!DOCTYPE svg PUBLIC "-//W3C//DTD SVG 1.1//EN" "http://www.w3.org/Graphics/SVG/1.1/DTD/svg11.dtd">
<svg version="1.1" id="Layer_1" xmlns="http://www.w3.org/2000/svg" xmlns:xlink="http://www.w3.org/1999/xlink" x="0px" y="0px"
	 viewBox="0 0 1167.9 342.7" style="enable-background:new 0 0 1167.9 342.7;" xml:space="preserve">
<style type="text/css">
	.st0{fill:#38B678;}
	.st1{fill:#82573A;}
	.st2{fill:none;stroke:#82573A;stroke-width:0;stroke-linecap:round;stroke-linejoin:round;}
</style>
<g>
	<g>
		<path class="st0" d="M495.5,36.8c51.2,0,85.3,30.5,85.3,76.3c0,28.2-13.7,48.9-34.8,55.1c24.6,6.3,40.7,29.7,40.7,62.2
			c0,45.8-34,76.3-84.9,76.3h-124c-3.1,0-5.5-2.7-5.5-5.5V42.7c0-2.7,2.3-5.9,5.5-5.9H495.5z M477.5,142.8c11.7,0,19.6-7,19.6-18
			c0-10.9-7.8-18-19.6-18h-24.6v36H477.5z M484.6,236.7c11.3,0,19.2-7.4,19.2-18.8c0-11.3-7.8-18.8-19.2-18.8h-31.7v37.5H484.6z"/>
		<path class="st0" d="M683.6,36.8c3.5,0,5.9,2.7,5.9,5.9v258.5c0,2.7-2.3,5.5-5.9,5.5h-69.2c-2.7,0-5.5-2.7-5.5-5.5V42.7
			c0-3.1,2.7-5.9,5.5-5.9H683.6z"/>
		<path class="st0" d="M941,300.4c2,3.5-0.8,6.3-4.3,6.3H853c-3.9,0-7.4-2.7-9-6.3l-40.7-85.3h-4.7v86c0,2.7-2.7,5.5-6.3,5.5h-68.8
			c-3.1,0-5.9-2.7-5.9-5.5V42.7c0-3.1,2.7-5.9,5.9-5.9h103.2c60.2,0,100.1,35.2,100.1,88.4c0,30.9-18.8,62.2-48.1,74.7L941,300.4z
			 M821.7,148.7c13.3,0,22.3-8.2,22.3-20.7s-9-20.7-22.3-20.7h-23.1v41.5H821.7z"/>
		<path class="st0" d="M1157.6,36.8c3.5,0,5.9,2.7,5.5,5.5l-5.9,59.4c-0.4,3.1-3.5,5.5-6.3,5.5h-58.3v194c0,2.7-2.3,5.5-5.5,5.5
			H1018c-3.1,0-5.9-2.7-5.9-5.5v-194h-64.9c-2.7,0-5.5-2.3-5.5-5.5V42.7c0-3.1,2.7-5.9,5.5-5.9H1157.6z"/>
	</g>
	<g>
		<path class="st1" d="M147.8,50.9c3.4-0.2,6.7-0.4,10-0.4c2.1,0,4.2,0,6.2,0.1c0-0.4,0-0.7,0-1.1c0-1.4,0-2.7,0.1-4h0
			c0-1.5,0.1-2.8,0.1-4.2c-2.1-0.1-4.3-0.1-6.4-0.1c-3.4,0-6.9,0.2-10.4,0.4c0.1,2.8,0.2,5.7,0.3,8.7
			C147.8,50.6,147.8,50.8,147.8,50.9z"/>
		<path class="st1" d="M40.8,110c0.4,0.2,0.9,0.4,1.4,0.5c2.1-3.1,4.4-6,6.8-8.9c1.6-1.9,3.3-3.8,5-5.6l-0.7-0.4l-4.7-2.3l-2.4-1.1
			c-0.3-0.2-0.6-0.3-0.9-0.4c-1.1,1.3-2.3,2.6-3.4,3.9c-3.1,3.7-6,7.6-8.7,11.6l5.4,1.9L40.8,110z"/>
		<path class="st1" d="M179.9,45.3L179.9,45.3c0,2.2,0.2,4.6,0.4,7.1c7.1,1.1,14,2.8,20.7,5c0.1-2.3,0.1-4.3,0.1-6.1
			c0-1.3,0.1-2.5,0.1-3.5c-7-2.1-14.1-3.7-21.4-4.8C179.8,43.7,179.9,44.5,179.9,45.3L179.9,45.3z"/>
		<path class="st1" d="M64.3,79.9l0.7,0.3l4,1.8c4.1-3.3,8.3-6.4,12.8-9.2L72,68.1c-4.4,3.1-8.6,6.3-12.7,9.8l1.6,0.7L64.3,79.9z"/>
		<path class="st1" d="M44.9,275.7c-0.5,0.1-1-0.1-1.3-0.5c-12.3-16.8-21-36.6-25-58.5c-1.5-8.4-2.2-16.8-2.2-25
			c0-24.1,6.2-47.3,17.4-67.6l-6.9-3l-1.6-0.7c-11.6,21.5-18.1,45.9-18.1,71.3c0,8.8,0.8,17.7,2.4,26.6c4.1,23,13.3,43.9,26.2,61.7
			c0.3,0.5,0.3,1.1,0,1.6c-2.4,3.3-3.4,7.6-2.4,12c1.7,7.4,9.1,12.3,16.6,11.2c8.3-1.2,13.9-9.1,12.4-17.2
			C60.8,279.8,53.4,274.1,44.9,275.7z"/>
		<path class="st1" d="M305.9,165.4c-6.5-36.4-25.6-67.5-52.1-89.4c-11.7-9.7-24.9-17.6-39.1-23.5c0.1,2.1,0.2,4.5,0.3,7.2
			c0.1,1,0.2,2.1,0.3,3.2c11.7,5.3,22.7,12,32.5,20.2c24.8,20.6,42.7,49.7,48.9,83.9c1.5,8.5,2.3,17.2,2.3,25.9
			c0,34.7-11.9,69.4-32.3,95.2c-10.2,12.9-22.5,23.6-36.5,31c-14,7.4-29.7,11.7-46.8,11.7c-15.2,0-29.2-6.4-39.3-16.5
			c-10.1-10.1-16.4-24-16.4-38.8c0-10.1,2.9-20.7,9.5-31.1c0-0.1,0.1-0.1,0.1-0.2c-1.4-0.7-2.8-1.3-4.2-2c1.4,0.6,2.8,1.3,4.2,2
			c5.2-8,12.6-16,22.9-23.4c0,0,0.1,0,0.1-0.1c0.7-0.4,1.6-0.5,2.2-0.1c4.7,2.8,10.9,2.2,15-1.8c2.8-2.8,4-6.6,3.6-10.3
			c-0.1-0.8,0.3-1.6,1-2c0.7-0.4,1.3-0.9,2-1.3c0.1-0.1,0.2-0.1,0.3-0.2c1.1-0.7,2.2-1.5,3.3-2.2c0.7-0.5,1.7-0.5,2.4-0.1
			c5,3.3,11.7,3.1,16.6-0.9c2-1.7,3.4-3.8,4.2-6c0.9-2.4,1-5.1,0.5-7.6c-0.2-0.8,0.2-1.7,0.9-2.2c0.8-0.6,1.6-1.1,2.4-1.6
			c1-0.7,2.1-1.4,3.1-2.1c0.1-0.1,0.2-0.1,0.3-0.2c0.8-0.5,1.8-0.5,2.5,0c5.5,4,13.3,4,18.8-0.5c6.2-5,7.5-13.9,3.2-20.4
			c-0.3-0.5-0.6-0.9-1-1.3c0,0-0.7-0.9-2-2.5c-0.2-0.2-0.4-0.5-0.6-0.8c-4.1-4.8-7.2-10.5-9.1-16.5c-0.4-1.2-0.7-2.2-0.9-2.8
			c-1-3.2-1.8-6.4-2.8-9.6l0,0l0,0c-0.5-2-1.1-4.1-1.6-6.1l0,0l0,0c-0.6-2.6-1.2-5.2-1.9-7.8l0,0c-0.6-2.6-1.3-5.2-1.8-7.8
			c-0.5-2.6-1-5.1-1.5-7.6l0,0c-0.5-2.5-1-4.9-1.4-7.4c-0.4-2.4-0.7-4.8-1.1-7.1c-0.3-2.3-0.7-4.6-1-6.7l0,0
			c-0.3-2.2-0.5-4.3-0.7-6.3c-0.3-3-0.6-5.8-0.8-8.3c-0.1-0.9-0.2-1.9-0.2-2.7l0,0l0,0c-0.1-2.9-0.2-5.4-0.3-7.6c0-0.3,0-0.7,0-1
			c-0.2-4.8-0.3-7.5-0.3-7.5l0-0.2c-0.1-2.7-2-5-4.6-5.4c-0.4-0.1-0.7-0.1-1-0.1c-3.1,0-5.6,2.5-5.6,5.5c0,0,0,1.6-0.1,4.5
			c0,1-0.1,2.1-0.1,3.3c0,1.8-0.1,4-0.2,6.4c0,0.8,0,1.7-0.1,2.6c0,3.4,0.2,7.3,0.3,11.6c0.1,2.1,0.1,4.4,0.2,6.6
			c0.2,2.3,0.4,4.6,0.6,7.1c0.2,2.4,0.4,4.9,0.6,7.5c0.2,2.5,0.6,5.1,0.9,7.8c0.3,2.6,0.7,5.3,1,8c0.3,2.7,0.9,5.4,1.3,8.2
			c0.5,2.7,0.9,5.5,1.4,8.3c0,0.2,0.1,0.4,0.1,0.6c-0.2-0.1-0.3-0.3-0.5-0.4c-0.2-0.1-0.3-0.3-0.5-0.4c-0.8-0.7-1.6-1.3-2.4-2
			c-2.1-1.8-4.3-3.7-6.6-5.5c-0.5-0.4-0.9-0.7-1.4-1.1c-2.8-2.2-5.7-4.4-8.6-6.7c-0.1-0.1-0.3-0.2-0.4-0.3c-0.2-0.1-0.3-0.2-0.5-0.4
			c-0.2-0.1-0.3-0.2-0.5-0.4c-0.9-5.3-1.9-10.5-2.8-15.5l0,0l0,0c-0.9-6.2-1.6-12.2-2.4-17.9c-0.2-1.4-0.4-2.8-0.5-4.2l0,0l0,0
			c-0.1-1.4-0.2-2.8-0.3-4.1c-0.2-2.7-0.4-5.3-0.7-7.8c-0.2-2.3-0.4-4.6-0.6-6.8c-0.2-2.4-0.4-4.8-0.4-6.9h0c0-0.9-0.1-1.7-0.1-2.5
			c-0.1-3-0.2-5.7-0.3-8.1c-0.2-5.9-0.3-9.2-0.3-9.2l0-0.1c-0.1-3.3-2.6-6.2-5.8-6.4c-0.2,0-0.4,0-0.6,0c-3.5,0-6.3,2.8-6.4,6.2
			c0,0-0.1,3.5-0.3,9.5c-0.1,2-0.1,4.3-0.2,6.8c0,1.3-0.1,2.7-0.1,4.1l0,0l0,0c-0.1,1.3-0.1,2.6-0.1,4c0,0.4,0,0.8,0,1.2
			c0,2.8,0.1,5.8,0.2,9c0,2.6,0.1,5.3,0.1,8.1c0,1.4,0.1,2.8,0.1,4.3c0.1,1.4,0.2,2.9,0.3,4.4c0.4,5.7,0.7,11.8,1.2,18
			c-0.1-0.1-0.3-0.2-0.4-0.3c-0.1-0.1-0.3-0.2-0.4-0.3c-2.2-1.4-4.4-2.9-6.6-4.3c-2.2-1.5-4.5-2.9-6.8-4.2c-0.9-0.5-1.8-1.1-2.7-1.6
			c-0.1-0.1-0.3-0.2-0.4-0.3c-0.1-0.1-0.3-0.2-0.4-0.3c-0.4-4.8-0.8-9.4-1.2-13.9c-0.4-3.4-0.4-6.7-0.5-9.8c-0.1-3-0.2-5.8-0.3-8.6
			c0-0.2,0-0.4,0-0.6c-0.1-3-0.2-5.9-0.3-8.7c0-1.3-0.1-2.6-0.1-3.9c0-1.2,0-2.4,0.1-3.5h0c0.1-4.8,0.2-9,0.3-12.4
			c0.1-3.4,0.1-6.1,0.2-8s0.1-2.8,0.1-2.8l0-0.1l0-0.2c0-3.6-2.6-6.9-6.1-7.4c-0.3,0-0.7-0.1-1-0.1c-3.7,0-6.8,2.9-7.1,6.6
			c0,0-0.1,1-0.2,2.9c-0.2,1.9-0.4,4.7-0.7,8.2c-0.3,3.5-0.6,7.8-1,12.7l0,0l0,0c-0.3,3.1-0.5,6.4-0.6,10c-0.1,2.1-0.1,4.3-0.2,6.6
			c0,1-0.1,2-0.1,3c-0.1,2.1-0.1,4.3-0.2,6.5c-0.1,2.3-0.2,4.6-0.2,7c0,1.1,0,2.1,0.1,3.2l0,0l0,0c0,0.8,0,1.6,0.1,2.5
			c-0.1-0.1-0.3-0.1-0.4-0.2c-0.1-0.1-0.3-0.1-0.4-0.2c-3.8-2-7.6-4-11.4-6c-0.3-0.1-0.5-0.3-0.8-0.4c0,0,0,0,0,0
			c-0.3-0.1-0.6-0.3-0.8-0.4c0,0,0,0,0,0c-1.1-0.5-2.2-1-3.4-1.6c-0.2-0.1-0.4-0.2-0.5-0.3c-2.1-1-4.2-2-6.3-2.9
			c-0.6-0.3-1.1-0.5-1.7-0.8c-0.6-0.3-1.2-0.6-1.8-0.8c-2.3-1.1-4.6-2.1-6.8-3.2c-0.3-0.1-0.7-0.3-1-0.4c-0.3-0.1-0.6-0.3-0.9-0.4
			c-5.6-2.3-11-4.5-16.2-6.6c-0.7-0.3-1.3-0.5-2-0.8c0,0-0.1,0-0.1-0.1c-0.2-0.1-0.4-0.2-0.6-0.2c-3-1.3-6.1-2.3-9-3.3
			c-3.1-1.1-6.1-2.1-9-3.1c-5.8-2-11-3.9-15.8-5.2c-4.7-1.4-8.9-2.6-12.3-3.6c-6.8-2-10.7-3.1-10.7-3.1c-4.1-1.2-8.4,1.2-9.5,5.5
			c-0.9,3.8,1.5,7.6,5.1,9l0.1,0c0,0,3.7,1.3,10.2,3.6c3.2,1.2,7.2,2.6,11.7,4.2c4.5,1.5,9.5,3.7,14.9,6c2.3,1,4.7,2,7.1,3
			c0.2,0.1,0.4,0.2,0.6,0.3c0.2,0.1,0.4,0.2,0.6,0.2c0,0,0,0,0,0l0.1,0c0.5,0.2,1,0.4,1.6,0.7c2,0.8,4,1.7,6.1,2.7
			c0.4,0.2,0.9,0.4,1.3,0.7c1.8,0.8,3.6,1.7,5.4,2.6c3.2,1.5,6.4,3.1,9.8,4.7c0.9,0.4,1.8,0.9,2.5,1.2c0.5,0.2,0.9,0.4,1.4,0.7
			c2.1,1.1,4.2,2.3,6.3,3.4c0.2,0.1,0.4,0.2,0.6,0.3c4.3,2.3,8.6,4.7,12.9,7.1c2.8,1.7,5.7,3.5,8.6,5.2c3.2,1.9,6.4,3.9,9.5,5.9
			c3.5,2.3,6.9,4.6,10.4,6.9c2.8,1.9,5.6,3.7,8.2,5.7c0.7,0.5,1.5,1.1,2.2,1.6c5.2,3.9,10.3,7.7,15.2,11.6c0.9,0.7,1.7,1.4,2.5,2.1
			c2.8,2.3,5.6,4.5,8.2,6.8c2.6,2.3,5.1,4.6,7.6,6.8c2.5,2.2,4.8,4.4,7,6.6c2.2,2.2,4.4,4.2,6.4,6.3c3.3,3.5,6.4,6.7,9.1,9.7
			c0.5,0.6,1,1.1,1.5,1.7c3.1,3.4,5.6,6.5,7.7,9c0.4,0.6,0.8,1.1,1.2,1.6c0,0,0.1,0.1,0.1,0.1c0.8,1,0.6,2.4-0.5,3.2
			c-0.2,0.1-0.3,0.2-0.5,0.3c-1.2,0.8-2.5,1.7-3.7,2.6c-0.9,0.6-2.2,0.5-2.9-0.3c-0.8-0.9-1.8-2-2.9-3.2c-2.2-2.3-4.8-5.1-7.9-8.1
			c-3.1-3.1-6.6-6.4-10.5-10c-1.9-1.8-4.1-3.6-6.2-5.5c-2.2-1.9-4.3-3.8-6.7-5.7c-1-0.8-2.1-1.7-3.2-2.6c-1.3-1.1-2.7-2.2-4.1-3.3
			c-2.4-2-5.1-3.9-7.7-5.9c-1.9-1.4-3.8-2.8-5.7-4.2c-0.8-0.6-1.6-1.2-2.4-1.7c-2.8-1.9-5.6-3.9-8.4-5.8c-1.4-1-2.8-2-4.3-2.9
			c-1.5-0.9-2.9-1.9-4.4-2.8c-2.9-1.9-5.9-3.7-8.8-5.6c-1-0.6-1.9-1.1-2.9-1.7c-5.1-3-10.2-5.8-15.1-8.7c-6.1-3.1-12.1-6.2-17.9-9.2
			c-1.8-0.9-3.6-1.7-5.3-2.5c-0.2-0.1-0.4-0.2-0.6-0.3c-0.2-0.1-0.4-0.2-0.6-0.3c0,0,0,0,0,0c-0.1,0-0.1,0-0.2-0.1
			c-2-0.9-4-1.8-5.9-2.7c-1.5-0.7-3-1.4-4.4-2c-0.2-0.1-0.4-0.2-0.6-0.3c-1.1-0.5-2.3-1-3.4-1.5c-1.3-0.5-2.7-1.1-4-1.6
			c-0.7-0.3-1.5-0.6-2.2-0.9c-1.8-0.7-3.6-1.4-5.3-2.1c-0.1,0-0.1,0-0.2-0.1c-2-0.8-4-1.6-5.9-2.4c-0.1,0-0.3-0.1-0.4-0.2h0
			c-0.2-0.1-0.4-0.2-0.6-0.2c-0.2-0.1-0.4-0.2-0.6-0.2c-1.9-0.8-3.8-1.5-5.6-2c-4-1.4-7.5-2.6-10.3-3.6c-5.7-2-9-3.1-9-3.1
			c-3.6-1.2-7.7,0.7-8.8,4.6c-1,3.4,1,6.9,4.2,8.3l0.1,0c0,0,3.1,1.3,8.5,3.6c2.7,1.1,6,2.5,9.8,4.1c0.6,0.2,1.2,0.5,1.8,0.8
			c0.2,0.1,0.4,0.2,0.6,0.2c0.2,0.1,0.4,0.2,0.6,0.2c0,0,0,0,0,0c0.9,0.4,1.8,0.8,2.7,1.2c0.5,0.2,0.9,0.5,1.4,0.7
			c0.7,0.3,1.4,0.7,2.1,1c0.9,0.4,1.7,0.8,2.6,1.2c0.2,0.1,0.3,0.2,0.5,0.2c0,0,0.1,0,0.1,0c0.6,0.3,1.3,0.6,2,0.9
			c1.4,0.7,2.8,1.3,4.3,2c0.3,0.1,0.5,0.3,0.8,0.4c0.4,0.2,0.7,0.4,1.1,0.5c0.9,0.4,1.7,0.8,2.6,1.3c1.2,0.7,2.5,1.3,3.7,2
			c1.7,0.9,3.5,1.9,5.3,2.9c0,0,0,0,0,0h0c0.2,0.1,0.4,0.2,0.6,0.3c0.2,0.1,0.4,0.2,0.6,0.3c3.1,1.7,6.2,3.4,9.4,5.1
			c5.4,3.2,10.9,6.6,16.5,9.9c5.4,3.7,11.1,7.2,16.5,11c2.7,2,5.4,3.9,8.1,5.8c1.3,1,2.7,1.9,4,2.9c1.2,0.9,2.3,1.8,3.5,2.7
			c0.1,0.1,0.3,0.2,0.4,0.3c2.6,2,5.1,4,7.6,6c2.5,2,4.9,4.1,7.2,6.1c2.3,2,4.7,3.9,6.9,6c2.2,2,4.3,4,6.4,5.9
			c2.1,1.9,4,3.9,5.9,5.7c1.9,1.9,3.8,3.6,5.4,5.4c2,2.1,3.9,4.1,5.6,6c1.2,1.3,2.4,2.6,3.4,3.8c2.7,2.9,4.8,5.6,6.6,7.7
			c0.2,0.2,0.3,0.4,0.5,0.6c0,0,0,0,0,0.1c0.7,1,0.5,2.4-0.5,3.1c-0.7,0.5-1.4,1-2.1,1.4c-0.5,0.4-1.1,0.7-1.6,1.1
			c-0.9,0.6-2,0.5-2.8-0.3c-0.1-0.1-0.2-0.2-0.3-0.3c-0.7-0.7-1.5-1.5-2.4-2.4c-1.8-1.8-4.1-3.8-6.6-6.2c-2.6-2.3-5.5-5-8.8-7.7
			c-3.2-2.8-6.8-5.7-10.6-8.8c-3.8-3.1-7.9-6.2-12.1-9.4c-0.3-0.3-0.7-0.5-1.1-0.8c-1.8-1.3-3.6-2.7-5.5-4c-1.1-0.8-2.2-1.6-3.3-2.4
			c-1.1-0.8-2.3-1.6-3.4-2.4c-2.3-1.6-4.6-3.2-7-4.8c-2.9-2-5.9-3.7-8.8-5.7c-1.9-1.2-3.7-2.3-5.6-3.5c-2.4-1.4-4.9-2.8-7.3-4.2
			c-2.4-1.4-4.8-2.9-7.2-4.1c-2.4-1.3-4.8-2.5-7.2-3.8c-2.4-1.2-4.6-2.5-7-3.6c-2.3-1.1-4.6-2.2-6.8-3.2c-2.1-1-4.2-2-6.3-3
			c-0.5-0.2-1-0.4-1.4-0.6c-0.2-0.1-0.5-0.2-0.7-0.3c-0.2-0.1-0.4-0.2-0.6-0.2l0,0c0,0,0,0,0,0c-1.2-0.5-2.3-1-3.5-1.4
			c0,0-0.1,0-0.1,0c-2-0.8-3.8-1.6-5.6-2.3c-1.4-0.6-2.7-1.1-4-1.6c-0.4-0.1-0.7-0.3-1.1-0.4c-0.6-0.2-1.3-0.4-1.9-0.7
			c-2.3-0.8-4.3-1.5-6.1-2.1c-0.2-0.1-0.4-0.1-0.5-0.2c-0.4-0.1-0.8-0.3-1.1-0.4c-3.1-1.1-5.1-1.8-5.9-2.1c-0.1,0-0.1,0-0.2-0.1v0
			c-0.1,0-0.2-0.1-0.2-0.1c-0.1,0-0.3-0.1-0.4-0.1c-0.2-0.1-0.4-0.1-0.6-0.1c-3.1-0.5-6.3,1.5-6.9,4.9c-0.3,1.6,0.1,3.2,1,4.4
			c0.1,0.2,0.3,0.4,0.4,0.5c0.1,0.2,0.3,0.3,0.4,0.5c0,0,0,0,0,0c0,0,0.1,0.1,0.1,0.1c0,0,0,0,0.1,0c0.2,0.2,0.5,0.4,0.8,0.6
			c0,0,0.1,0,0.1,0c0.2,0.1,0.5,0.3,0.7,0.4l0.1,0.1l0,0l0,0l0.2,0.1c0,0,0.2,0.1,0.5,0.2c0.2,0.1,0.5,0.2,0.8,0.3
			c0.7,0.3,1.6,0.7,2.8,1.2c0.4,0.2,0.8,0.4,1.3,0.6c0.5,0.2,1,0.4,1.5,0.7c0.5,0.2,1,0.4,1.5,0.7c1.6,0.7,3.5,1.5,5.5,2.4
			c0.3,0.1,0.6,0.2,0.9,0.4c0.7,0.4,1.5,0.7,2.3,1.1c0.8,0.4,1.6,0.8,2.4,1.2c1.7,0.8,3.4,1.7,5.2,2.6c0.6,0.3,1.2,0.6,1.7,0.9l0,0
			c0.2,0.1,0.4,0.2,0.6,0.3c0.2,0.1,0.4,0.2,0.6,0.3c0.9,0.5,1.9,0.9,2.8,1.4c1.9,1.1,3.9,2.2,5.9,3.3c2,1.1,4.1,2.3,6.3,3.5
			c2.1,1.2,4.2,2.6,6.4,3.9c2.2,1.3,4.4,2.7,6.6,4.1c2.2,1.4,4.4,2.9,6.6,4.4c2.2,1.5,4.4,3,6.6,4.5c1.7,1.2,3.4,2.5,5.1,3.7
			c2.6,2.1,5.4,3.9,8,6c2.1,1.7,4.2,3.3,6.3,5c1,0.8,2.1,1.7,3.1,2.5c1,0.9,2,1.7,3,2.5c2,1.7,4,3.4,5.9,5c3.8,3.4,7.5,6.6,10.9,9.8
			c3.4,3.2,6.6,6.2,9.5,9.1c2.9,2.8,5.5,5.5,7.8,7.9c1.2,1.3,2.9,3.1,4.3,4.6c0.3,0.5,0.6,1,0.8,1.5c0.1,0.8-0.2,1.5-0.9,2
			c-10.7,8-18.7,16.7-24.3,25.8c0,0,0,0,0,0c0,0,0,0,0,0c-7.2,11.6-10.5,23.6-10.4,35.2c0,17.5,7.4,33.6,19.1,45.3
			c11.8,11.7,28,19.2,45.9,19.2c18.7,0,35.9-4.6,51.2-12.8c22.9-12.2,41.3-32.1,54-55.7c12.7-23.7,19.7-51.1,19.7-78.7
			C308.3,183.7,307.5,174.5,305.9,165.4z"/>
		<path class="st1" d="M129.2,53.5c0-1.1,0.1-2.1,0.1-3.2c0.1-2.2,0.1-4.3,0.2-6.4c-11.8,2.2-23,5.8-33.5,10.5l11.4,5.3
			C114.4,57.2,121.7,55.1,129.2,53.5z"/>
		<polygon class="st1" points="58.6,61.3 58.8,60.7 58.5,61.3 		"/>
		<path class="st2" d="M72.9,85.1c2,0.9,3.9,1.8,5.9,2.7"/>
		<path class="st2" d="M39.9,87.9c-0.9-0.4-1.8-0.9-2.7-1.2"/>
		<path class="st2" d="M43.4,89.6c-0.7-0.3-1.4-0.7-2.1-1"/>
		<path class="st2" d="M94.4,55.2c-0.3-0.1-0.6-0.3-0.9-0.4"/>
		<path class="st2" d="M104.1,59.7c0.6,0.3,1.1,0.5,1.7,0.8"/>
		<path class="st2" d="M19.4,116.4C19.4,116.4,19.4,116.4,19.4,116.4"/>
		<path class="st2" d="M18.6,115.8C18.5,115.8,18.5,115.8,18.6,115.8"/>
		<path class="st2" d="M51.2,115.6c1.1,0.5,2.3,0.9,3.5,1.4"/>
	</g>
</g>
</svg>
