<?xml version="1.0" encoding="utf-8"?>
<!-- Generator: Adobe Illustrator 19.2.1, SVG Export Plug-In . SVG Version: 6.00 Build 0)  -->
<!DOCTYPE svg PUBLIC "-//W3C//DTD SVG 1.1//EN" "http://www.w3.org/Graphics/SVG/1.1/DTD/svg11.dtd">
<svg version="1.1" id="Layer_1" xmlns="http://www.w3.org/2000/svg" xmlns:xlink="http://www.w3.org/1999/xlink" x="0px" y="0px"
	 viewBox="0 0 470.8 305.2" style="enable-background:new 0 0 470.8 305.2;" xml:space="preserve">
<style type="text/css">
	.st0{fill:#333333;}
	.st1{fill:#F89951;}
	.st2{fill:#54B94A;}
	.st3{fill:#2C9CA0;}
	.st4{fill:#EF3B39;}
	.st5{fill:none;}
</style>
<g>
	<path class="st0" d="M438.3,20.2c2.4,0,4.4-2,4.4-4.4V7.5c0-2.4-2-4.4-4.4-4.4h-47.6v17.2H438.3z"/>
	<rect x="41.3" y="3.1" class="st0" width="292.9" height="17.2"/>
	<rect x="41.3" y="242.7" class="st0" width="280.3" height="17.2"/>
	<path class="st0" d="M466.3,242.7H453v17.2h13.3c2.4,0,4.4-2,4.4-4.4v-8.3C470.8,244.7,468.8,242.7,466.3,242.7z"/>
	<rect x="41.3" y="45.5" class="st0" width="54.5" height="17.2"/>
	<path class="st0" d="M453.7,62.7c2.4,0,4.4-2,4.4-4.4V50c0-2.4-2-4.4-4.4-4.4H220.5v17.2H453.7z"/>
	<path class="st0" d="M404.1,285.1H284.2v17.2h119.9c2.4,0,4.4-2,4.4-4.4v-8.3C408.5,287.1,406.5,285.1,404.1,285.1z"/>
	<rect x="41.3" y="285.1" class="st0" width="124.3" height="17.2"/>
	<path class="st1" d="M449.6,241.9c0-1.3-1-2.3-2.3-2.3H327.4c-1.3,0-2.3,1-2.3,2.3v18.6c0,1.3,1,2.3,2.3,2.3h119.9
		c1.3,0,2.3-1,2.3-2.3V241.9z"/>
	<path class="st2" d="M99.3,63.3c0,1.3,1,2.3,2.3,2.3h113.2c1.3,0,2.3-1,2.3-2.3V44.9c0-1.3-1-2.3-2.3-2.3H101.6
		c-1.3,0-2.3,1-2.3,2.3V63.3z"/>
	<path class="st3" d="M337.6,21c0,1.3,1,2.3,2.3,2.3h45c1.3,0,2.3-1,2.3-2.3V2.3c0-1.3-1-2.3-2.3-2.3h-45c-1.3,0-2.3,1-2.3,2.3V21z"
		/>
	<path class="st3" d="M280.7,284.5c0-1.3-1-2.3-2.3-2.3h-107c-1.3,0-2.3,1-2.3,2.3v18.4c0,1.3,1,2.3,2.3,2.3h107
		c1.3,0,2.3-1,2.3-2.3V284.5z"/>
	<g>
		<path class="st4" d="M42.7,147.4H17.2V66c0-1.8,1.5-3.3,3.3-3.3h17.4V45.5H20.4c-1.8,0-3.2-1.4-3.2-3.2V23.7
			c0-1.9,1.5-3.4,3.4-3.4h17.3V3.1H5.3C2.4,3.1,0,5.5,0,8.4v288.8c0,2.8,2.3,5.1,5.1,5.1h32.8v-17.2H20.4c-1.8,0-3.3-1.5-3.3-3.3
			v-18.3c0-2.1,1.7-3.7,3.7-3.7h17v-17.2h-17c-2.1,0-3.7-1.7-3.7-3.7v-74.4h26.6c-0.8-4.1-1.2-8.5-1.2-12.9
			C42.6,150.2,42.6,148.8,42.7,147.4z"/>
	</g>
	<g>
		<path class="st4" d="M142.5,147.4H90c-0.8,0-1.5,0.7-1.5,1.5v14.2c0,0.8,0.6,1.4,1.4,1.4h34.9c0.3,0,0.6,0.3,0.6,0.6l0,17.4
			c0,0.2-0.1,0.3-0.2,0.5c-5.3,4.8-14.9,9.9-26.1,9.9c-22.5,0-38.9-17.4-38.9-41.3c0-23.8,16.3-41.1,38.9-41.1
			c11.5,0,22.3,5.2,29.1,13.8l0.7,0.9c0.3,0.3,0.6,0.5,1,0.5c0.2,0,0.5-0.1,0.7-0.2l12.8-7.9c0.7-0.4,0.8-1.4,0.3-2l-0.9-1.1
			c-11.3-14-26-21.1-43.8-21.1c-32.1,0-55.8,22.5-57.7,54c-0.1,1.4-0.1,2.8-0.1,4.2c0,4.5,0.4,8.8,1.3,12.9
			c5.4,27,27.5,45.4,56.6,45.4c17.2,0,32.9-6.9,44.2-19.4l0.7-0.7V149C144,148.1,143.3,147.4,142.5,147.4z"/>
		<g>
			<path class="st5" d="M224.3,130.2c0-11.1-7.8-18.5-19.5-18.5h-26.3v37.3h26.3C216.4,148.9,224.3,141.4,224.3,130.2z"/>
			<path class="st4" d="M244.4,206.7L215.5,163c13.7-2.5,26.5-13.1,26.5-32.8c0-20.5-14.3-34.3-35.6-34.3h-44.2c-0.5,0-1,0.4-1,1
				v109.5c0,0.5,0.4,0.9,0.9,0.9h15.6c0.4,0,0.7-0.3,0.7-0.7v-42H197l26.7,41.6c0.5,0.7,1.3,1.2,2.1,1.2h18.4
				C244.4,207.3,244.6,206.9,244.4,206.7z M178.5,112.5c0-0.5,0.4-0.8,0.8-0.8h25.4c11.7,0,19.5,7.5,19.5,18.5
				c0,11.2-7.8,18.7-19.5,18.7h-25.5c-0.4,0-0.8-0.4-0.8-0.8V112.5z"/>
		</g>
		<path class="st4" d="M275.3,95.8h-14.9c-0.7,0-1.2,0.5-1.2,1.2v109c0,0.7,0.5,1.2,1.2,1.2h14.9c0.7,0,1.2-0.5,1.2-1.2V97
			C276.5,96.4,276,95.8,275.3,95.8z"/>
		<path class="st4" d="M375.1,95.8h-83.6c-0.6,0-1.1,0.5-1.1,1.1v13.7c0,0.5,0.4,1,1,1h33v94.7c0,0.5,0.4,1,1,1h15.1
			c0.6,0,1.2-0.5,1.2-1.2v-94.4h33.4c0.4,0,0.7-0.3,0.7-0.7V96.6C375.8,96.2,375.5,95.8,375.1,95.8z"/>
		<path class="st4" d="M428.4,140.9c-13.1-3.6-24.4-6.6-24.4-15.7c0-8.9,8.3-15.2,20.2-15.2c12,0,23.2,4.1,29.7,12.3
			c0.2,0.3,0.9,0.6,1.4,0.6c0,0,0,0,0,0c0.5,0,1.1-0.4,1.4-0.6c2.4-2.1,6.2-7.2,8.1-9.8c0.2-0.3,0.6-0.9,0.6-1.4
			c0-0.4-0.6-1.2-0.6-1.2c-9.8-10.3-23.2-15.6-39.6-15.6c-22.5,0-38.9,13.4-38.9,31.8c0,22.2,19.7,27.6,37.1,32.3
			c14.3,3.9,26.6,7.2,26.6,18.5c0,8-6.1,16.6-23.4,16.6c-16.7,0-26.9-9.5-32.2-14.7c-0.3-0.3-0.9-1-1.6-1c0,0,0,0-0.1,0
			c-0.5,0-1,0.4-1.4,1c-1.9,2.5-5.2,6.7-7.8,10.1c-0.2,0.3-0.8,1.1-0.8,1.4c0,0.5,0.6,1.2,0.9,1.4c8.5,6.7,20.2,17.6,42.5,17.6
			c30.7,0,41.6-17.3,41.6-33.5C467.7,151.6,445.9,145.7,428.4,140.9z"/>
	</g>
</g>
</svg>
