<?xml version="1.0" encoding="utf-8"?>
<!-- Generator: Adobe Illustrator 19.2.1, SVG Export Plug-In . SVG Version: 6.00 Build 0)  -->
<!DOCTYPE svg PUBLIC "-//W3C//DTD SVG 1.1//EN" "http://www.w3.org/Graphics/SVG/1.1/DTD/svg11.dtd">
<svg version="1.1" id="Layer_1" xmlns="http://www.w3.org/2000/svg" xmlns:xlink="http://www.w3.org/1999/xlink" x="0px" y="0px"
	 viewBox="0 0 432.3 245.1" style="enable-background:new 0 0 432.3 245.1;" xml:space="preserve">
<style type="text/css">
	.st0{fill:none;}
	.st1{fill:#FF970B;}
	.st2{fill:#0BA5FF;}
	.st3{fill:#FFFFFF;}
</style>
<g>
	<path class="st0" d="M235.2,115.5h-0.4c-4,11.6-9.5,26.7-14.3,39.5l-6.1,16.2h41l-6.3-17C244.7,142.2,239.2,127,235.2,115.5z"/>
	<g>
		<path class="st1" d="M119.8,133.5c0,14.7,0.2,29.4,0.4,43.9l-0.4,0.2c-9.5-13.2-18.7-26-28.6-39.3L45.6,77H14.1v152h32.1v-56.5
			c0-14.7-0.2-29.4-0.4-43.9l0.4-0.2c9.5,13.2,18.7,26,28.6,39.3l45.6,61.3h31.5V77h-32.1L119.8,133.5L119.8,133.5z"/>
	</g>
	<g>
		<polygon class="st2" points="189.3,10 155.9,10.5 155.9,73 189.3,73 		"/>
	</g>
	<g>
		<rect x="281.3" y="14.7" class="st2" width="31.4" height="58.3"/>
	</g>
	<g>
		<rect x="387.6" y="43.3" class="st2" width="31.5" height="29.6"/>
	</g>
	<g>
		<polygon class="st2" points="119.8,73 151.9,73 151.9,30 119.8,30.4 		"/>
	</g>
	<g>
		<polygon class="st2" points="45.6,53.8 14.1,53.6 14.1,73 45.6,73 		"/>
	</g>
	<g>
		<rect x="219.2" y="27.2" class="st2" width="32.3" height="45.8"/>
	</g>
	<g>
		<path class="st1" d="M387.6,77.5l-0.6,0.8l-36.8,49.5l-37.4-50.3h-31.5v73l32,78.9h-32v0.3l0,0l0,0h31.5h0.6v-0.8v-50.6v-5
			c0-14.7-0.2-29.4-0.4-43.9l0.4-0.2c5.9,8.3,11.8,16.4,17.7,24.6c3.6,4.9,7.2,9.8,10.8,14.7l8.2,11l8.2-11
			c3.7-4.9,7.3-9.8,10.8-14.7c6-8.2,11.8-16.3,17.7-24.6l0,0v5c0,6.5,0,13,0.1,19.5c-0.1,6.5-0.1,13-0.1,19.6v5v50.6v0.8h0.6h31.5
			l0,0V77.5l0,0H387.6z"/>
	</g>
	<g>
		<path class="st1" d="M276.3,231.3l-12.2-31.9h-58.6l-12.4,31.9h-38.6l1.7-4.3h31v-76.4l30.6-75.4h35l63.4,156L276.3,231.3
			L276.3,231.3z M252.5,169.1l-5.3-14.3c-4.4-11.9-8.8-24.2-12.2-33.9c-3.8,11-8.5,23.8-12.6,34.7l-5.1,13.5H252.5z"/>
		<path class="st3" d="M251.6,77.3l29.7,73.2l32,78.9h-32h-3.7l-12.2-31.9h-61.3l-12.4,31.9h-34.2l0.1-0.3h31.7v-78l29.9-73.8
			L251.6,77.3 M214.4,171.1h41l-6.3-17c-4.4-12-9.9-27.1-13.9-38.6h-0.4c-4,11.6-9.5,26.7-14.3,39.5L214.4,171.1 M254.3,73.3h-2.7
			h-32.3h-2.7l-1,2.5l-30,73.7l-0.3,0.7v0.8v74h-27.7h-2.7l-1,2.5l-0.1,0.3l-2.2,5.5h5.9h34.2h2.7l1-2.6l11.4-29.4h55.8l11.2,29.3
			l1,2.6h2.8h3.7h32h5.9l-2.2-5.5l-32-78.9l-29.7-73.2L254.3,73.3L254.3,73.3z M220.2,167.1l4.1-10.8c3.5-9.2,7.3-19.7,10.7-29.4
			c3.1,8.7,6.7,18.7,10.3,28.5l4.3,11.6h-29.4V167.1z"/>
	</g>
	<g>
		<rect x="153.9" y="74.9" class="st1" width="37.5" height="156.1"/>
		<path class="st3" d="M189.3,77v74v78h-31.7h-1.7V77H189.3 M193.4,72.9h-4.1h-33.4h-4.1V77v152v4.1h4.1h1.7h31.7h4.1V229v-78V77
			V72.9L193.4,72.9z"/>
	</g>
</g>
</svg>
