<?xml version="1.0" encoding="utf-8"?>
<!-- Generator: Adobe Illustrator 19.2.1, SVG Export Plug-In . SVG Version: 6.00 Build 0)  -->
<!DOCTYPE svg PUBLIC "-//W3C//DTD SVG 1.1//EN" "http://www.w3.org/Graphics/SVG/1.1/DTD/svg11.dtd">
<svg version="1.1" id="Layer_1" xmlns="http://www.w3.org/2000/svg" xmlns:xlink="http://www.w3.org/1999/xlink" x="0px" y="0px"
	 viewBox="0 0 276 96" style="enable-background:new 0 0 276 96;" xml:space="preserve">
<style type="text/css">
	.st0{fill:none;}
	.st1{clip-path:url(#XMLID_2_);fill:#603B22;}
	.st2{clip-path:url(#XMLID_2_);fill:#825535;}
	.st3{clip-path:url(#XMLID_2_);fill:none;stroke:#000000;stroke-width:4;stroke-linecap:round;stroke-miterlimit:10;}
	.st4{clip-path:url(#XMLID_2_);fill:none;stroke:#FF931E;stroke-width:4;stroke-miterlimit:10;}
	.st5{clip-path:url(#XMLID_2_);fill:none;stroke:#42BA7F;stroke-width:4;stroke-miterlimit:10;}
	.st6{clip-path:url(#XMLID_2_);}
	.st7{fill:#FFFFFF;}
</style>
<line id="XMLID_17_" class="st0" x1="10" y1="17" x2="217" y2="17"/>
<g id="XMLID_22_">
	<defs>
		<path id="XMLID_21_" d="M256.7,96H19.3C8.7,96,0,87.3,0,76.7V19.3C0,8.7,8.7,0,19.3,0h237.5C267.3,0,276,8.7,276,19.3v57.5
			C276,87.3,267.3,96,256.7,96z"/>
	</defs>
	<clipPath id="XMLID_2_">
		<use xlink:href="#XMLID_21_"  style="overflow:visible;"/>
	</clipPath>
	<path id="XMLID_24_" class="st1" d="M269.6,96H6.4C2.9,96,0,93.1,0,89.6V6.4C0,2.9,2.9,0,6.4,0h263.3c3.5,0,6.4,2.9,6.4,6.4v83.3
		C276,93.1,273.1,96,269.6,96z"/>
	<path id="XMLID_13_" class="st2" d="M261.7,91.5H23.4C13,91.5,4.5,83,4.5,72.6V-4.5H276v77.1C276,83,272.1,91.5,261.7,91.5z"/>
	<line id="XMLID_25_" class="st3" x1="-76" y1="47" x2="126" y2="47"/>
	<line id="XMLID_26_" class="st3" x1="-95" y1="61" x2="112" y2="61"/>
	<line id="XMLID_58_" class="st4" x1="-112" y1="61" x2="95" y2="61"/>
	<line id="XMLID_59_" class="st5" x1="29" y1="47" x2="115" y2="47"/>
	<line id="XMLID_27_" class="st3" x1="120" y1="74" x2="-103" y2="74"/>
	<line id="XMLID_23_" class="st3" x1="-79" y1="32" x2="101" y2="32"/>
	<line id="XMLID_28_" class="st3" x1="-78" y1="20" x2="117" y2="20"/>
	<g id="XMLID_19_" class="st6">
		<path id="XMLID_53_" class="st7" d="M140.1,25.5h-7.5V18H156v7.5h-7.9v50.1h-8V25.5z"/>
		<path id="XMLID_50_" class="st7" d="M165.2,75.6h-7.8l7.9-57.6h10.4l7.5,57.6h-7.9l-1.5-13h-7.3L165.2,75.6z M170.2,28.5
			l-2.8,26.7h5.5L170.2,28.5z"/>
		<path id="XMLID_48_" class="st7" d="M192.2,25.5h-7.5V18h23.4v7.5h-7.9v50.1h-8V25.5z"/>
		<path id="XMLID_46_" class="st7" d="M232.8,18v7.5h-11.4v16.2h7.9v7.5h-7.9v18.9h12.1v7.5h-20.1V18H232.8z"/>
		<path id="XMLID_20_" class="st7" d="M246.6,18c6.5,0,9.4,1,11.7,4.1c2.1,2.7,3,6.6,3,12c0,7.2-0.8,9.8-4.1,14l5.6,27.6h-8.6
			l-4.7-24.8c-1.4,0.3-1.6,0.3-2.9,0.3v24.4h-8V18H246.6z M247.9,43.1c2.6,0,4.1-0.6,4.8-2.1c0.6-1.1,0.8-2.5,0.8-7.8
			c0-6.2-1.1-7.7-5.6-7.7h-1.1v17.5H247.9z"/>
	</g>
	<line id="XMLID_60_" class="st4" x1="11" y1="32" x2="46" y2="32"/>
</g>
</svg>
